<?xml version="1.0" standalone="no"?>
<!DOCTYPE svg PUBLIC "-//W3C//DTD SVG 20010904//EN"
 "http://www.w3.org/TR/2001/REC-SVG-20010904/DTD/svg10.dtd">
<svg version="1.0" xmlns="http://www.w3.org/2000/svg"
 width="1192.000000pt" height="671.000000pt" viewBox="0 0 1192.000000 671.000000"
 preserveAspectRatio="xMidYMid meet">

<g transform="translate(0.000000,671.000000) scale(0.100000,-0.100000)"
fill="#000000" stroke="none">
<path d="M0 6105 l0 -605 905 0 905 0 0 375 0 375 545 0 545 0 0 -375 0 -375
905 0 905 0 0 375 0 375 94 0 c90 0 95 -1 99 -22 4 -20 4 -19 6 5 l1 27 -100
0 -100 0 0 225 0 225 -905 0 -905 0 0 -225 0 -225 -545 0 -545 0 0 225 0 225
-905 0 -905 0 0 -605z m1800 450 l0 -145 -895 0 -895 0 0 145 0 145 895 0 895
0 0 -145z m2900 0 l0 -145 -895 0 -895 0 0 145 0 145 895 0 895 0 0 -145z
m-4400 -300 l0 -145 -145 0 -145 0 0 145 0 145 145 0 145 0 0 -145z m1500 0
l0 -145 -745 0 -745 0 0 145 0 145 745 0 745 0 0 -145z m1400 0 l0 -145 -145
0 -145 0 0 145 0 145 145 0 145 0 0 -145z m1500 0 l0 -145 -745 0 -745 0 0
145 0 145 745 0 745 0 0 -145z m-4400 -450 l0 -295 -145 0 -145 0 0 295 0 295
145 0 145 0 0 -295z m1500 0 l0 -295 -745 0 -745 0 0 295 0 295 745 0 745 0 0
-295z m1400 0 l0 -295 -145 0 -145 0 0 295 0 295 145 0 145 0 0 -295z m1500 0
l0 -295 -745 0 -745 0 0 295 0 295 745 0 745 0 0 -295z"/>
<path d="M719 6589 c-8 -16 -8 -28 0 -45 10 -23 44 -33 55 -15 3 4 -5 6 -18 4
-17 -4 -26 0 -30 15 -10 31 4 54 30 49 13 -2 21 0 18 4 -10 17 -43 9 -55 -12z"/>
<path d="M800 6565 c0 -25 5 -45 10 -45 6 0 10 20 10 45 0 25 -4 45 -10 45 -5
0 -10 -20 -10 -45z"/>
<path d="M1008 6595 c-2 -2 -2 -20 0 -40 3 -24 9 -35 21 -35 13 0 13 2 2 9 -8
6 -12 19 -9 35 5 24 -3 42 -14 31z"/>
<path d="M843 6555 c0 -22 2 -30 4 -17 2 12 2 30 0 40 -3 9 -5 -1 -4 -23z"/>
<path d="M871 6572 c-6 -11 -6 -24 0 -35 11 -18 39 -24 39 -7 0 5 -7 7 -15 4
-8 -4 -15 -1 -15 5 0 6 9 11 21 11 15 0 19 4 15 16 -3 9 -6 18 -6 20 0 12 -31
1 -39 -14z m34 -2 c3 -5 -1 -10 -9 -10 -9 0 -16 5 -16 10 0 6 4 10 9 10 6 0
13 -4 16 -10z"/>
<path d="M943 6555 c0 -22 2 -30 4 -17 2 12 2 30 0 40 -3 9 -5 -1 -4 -23z"/>
<path d="M968 6555 c2 -19 8 -35 13 -35 10 0 12 31 3 54 -11 28 -20 17 -16
-19z"/>
<path d="M1051 6572 c-6 -11 -6 -24 0 -35 11 -18 39 -24 39 -7 0 5 -7 7 -15 4
-8 -4 -15 -1 -15 5 0 6 9 11 21 11 15 0 19 4 15 16 -3 9 -6 18 -6 20 0 12 -31
1 -39 -14z m34 -2 c3 -5 -1 -10 -9 -10 -9 0 -16 5 -16 10 0 6 4 10 9 10 6 0
13 -4 16 -10z"/>
<path d="M3603 6603 c-7 -2 -13 -20 -13 -38 0 -25 5 -35 21 -40 12 -4 25 -3
30 2 6 6 1 9 -13 9 -19 -1 -23 4 -23 29 0 24 4 30 22 29 12 0 20 3 17 8 -6 9
-22 9 -41 1z"/>
<path d="M3680 6575 c-17 -21 -2 -50 26 -50 14 0 19 7 19 30 0 34 -24 45 -45
20z m37 -11 c8 -22 -15 -44 -26 -25 -10 16 -4 41 10 41 5 0 12 -7 16 -16z"/>
<path d="M3753 6555 c0 -22 2 -30 4 -17 2 12 2 30 0 40 -3 9 -5 -1 -4 -23z"/>
<path d="M3779 6576 c5 -6 11 -22 14 -36 4 -21 4 -20 6 8 0 17 5 32 10 32 6 0
12 -15 14 -32 l4 -33 1 37 c2 35 0 37 -28 36 -20 -1 -27 -5 -21 -12z"/>
<path d="M3862 6543 l1 -48 4 43 c4 42 18 55 29 27 4 -8 0 -23 -7 -32 -12 -14
-12 -16 1 -11 9 3 15 17 15 34 0 22 -5 30 -22 32 -21 3 -23 0 -21 -45z"/>
<path d="M3933 6555 c0 -22 2 -30 4 -17 2 12 2 30 0 40 -3 9 -5 -1 -4 -23z"/>
<path d="M3995 6581 c19 -8 19 -8 -3 -15 -29 -10 -25 -40 6 -44 21 -3 23 0 20
30 -2 24 -8 33 -23 35 l-20 3 20 -9z m15 -30 c0 -12 -20 -25 -27 -18 -7 7 6
27 18 27 5 0 9 -4 9 -9z"/>
<path d="M81 6263 c1 -26 3 -40 6 -31 2 9 14 18 26 20 16 2 22 10 22 28 0 20
-6 26 -27 28 -27 3 -28 2 -27 -45z m44 17 c0 -8 -8 -16 -17 -18 -13 -2 -18 3
-18 18 0 15 5 20 18 18 9 -2 17 -10 17 -18z"/>
<path d="M162 6265 c-1 -40 1 -45 8 -27 12 27 27 28 35 2 3 -11 11 -20 17 -20
6 0 3 12 -7 26 -16 24 -16 27 1 45 9 10 13 19 7 19 -5 0 -18 -9 -29 -21 l-19
-21 -6 24 c-5 15 -7 7 -7 -27z"/>
<path d="M393 6265 c0 -27 2 -38 4 -22 2 15 2 37 0 50 -2 12 -4 0 -4 -28z"/>
<path d="M430 6265 c0 -45 1 -46 28 -43 24 3 27 7 27 43 0 36 -3 40 -27 43
-27 3 -28 2 -28 -43z m45 0 c0 -20 -6 -31 -17 -33 -15 -3 -18 4 -18 33 0 29 3
36 18 33 11 -2 17 -13 17 -33z"/>
<path d="M640 6265 c0 -25 5 -45 10 -45 6 0 10 20 10 45 0 25 -4 45 -10 45 -5
0 -10 -20 -10 -45z"/>
<path d="M847 6294 c-9 -9 9 -68 21 -70 7 -1 8 0 2 3 -14 7 -13 50 2 55 8 3 6
6 -4 10 -9 4 -18 5 -21 2z"/>
<path d="M587 6283 c-4 -3 -7 -17 -7 -30 0 -26 26 -41 42 -25 8 8 5 9 -11 5
-18 -4 -21 -1 -21 22 0 22 3 25 21 20 15 -5 19 -4 15 4 -8 12 -29 15 -39 4z"/>
<path d="M683 6255 c0 -22 2 -30 4 -17 2 12 2 30 0 40 -3 9 -5 -1 -4 -23z"/>
<path d="M717 6284 c-4 -4 -7 -18 -7 -31 0 -27 26 -41 43 -23 9 10 7 11 -10 5
-14 -4 -23 -2 -23 4 0 6 9 11 21 11 14 0 19 5 17 17 -3 19 -29 29 -41 17z m28
-14 c3 -5 -1 -10 -9 -10 -9 0 -16 5 -16 10 0 6 4 10 9 10 6 0 13 -4 16 -10z"/>
<path d="M783 6255 c0 -22 2 -30 4 -17 2 12 2 30 0 40 -3 9 -5 -1 -4 -23z"/>
<path d="M807 6283 c6 -4 13 -22 16 -38 4 -27 5 -27 3 4 0 21 -7 36 -16 38
-10 3 -11 2 -3 -4z"/>
<path d="M897 6284 c-4 -4 -7 -18 -7 -31 0 -27 26 -41 43 -23 9 10 7 11 -10 5
-14 -4 -23 -2 -23 4 0 6 9 11 21 11 14 0 19 5 17 17 -3 19 -29 29 -41 17z m28
-14 c3 -5 -1 -10 -9 -10 -9 0 -16 5 -16 10 0 6 4 10 9 10 6 0 13 -4 16 -10z"/>
<path d="M523 6203 c82 -2 212 -2 290 0 78 1 12 3 -148 3 -159 0 -223 -2 -142
-3z"/>
<path d="M2981 6263 c1 -26 3 -40 6 -31 2 9 14 18 26 20 16 2 22 10 22 28 0
20 -6 26 -27 28 -27 3 -28 2 -27 -45z m44 17 c0 -8 -8 -16 -17 -18 -13 -2 -18
3 -18 18 0 15 5 20 18 18 9 -2 17 -10 17 -18z"/>
<path d="M3062 6265 c-1 -40 1 -45 8 -27 12 27 27 28 35 2 3 -11 11 -20 17
-20 6 0 3 12 -7 26 -16 24 -16 27 1 45 9 10 13 19 7 19 -5 0 -18 -9 -29 -21
l-19 -21 -6 24 c-5 15 -7 7 -7 -27z"/>
<path d="M3360 6301 c0 -5 -9 -11 -21 -14 -30 -8 -23 -61 9 -65 20 -3 22 1 22
42 0 25 -2 46 -5 46 -3 0 -5 -4 -5 -9z m0 -46 c0 -26 -14 -33 -25 -15 -9 14 1
40 15 40 5 0 10 -11 10 -25z"/>
<path d="M3293 6255 c0 -22 2 -30 4 -17 2 12 2 30 0 40 -3 9 -5 -1 -4 -23z"/>
<path d="M3465 6271 c-11 -35 22 -71 39 -42 3 5 -2 8 -12 7 -11 -1 -17 6 -17
19 0 13 6 20 17 19 10 -1 15 2 12 7 -9 16 -32 10 -39 -10z"/>
<path d="M3537 6284 c-13 -13 -7 -55 9 -61 24 -9 51 23 38 45 -12 19 -36 27
-47 16z m33 -29 c0 -16 -6 -25 -15 -25 -9 0 -15 9 -15 25 0 16 6 25 15 25 9 0
15 -9 15 -25z"/>
<path d="M3601 6253 c1 -36 2 -36 8 -9 9 43 31 45 32 4 l1 -33 7 29 c9 42 29
44 34 4 l5 -33 -2 35 c-1 34 -2 35 -43 38 l-43 3 1 -38z"/>
<path d="M3711 6243 c1 -27 3 -40 6 -31 2 9 10 15 17 12 19 -7 39 22 31 46 -4
13 -15 20 -31 20 -22 0 -24 -4 -23 -47z m39 12 c0 -26 -14 -33 -25 -15 -9 14
1 40 15 40 5 0 10 -11 10 -25z"/>
<path d="M3780 6255 c0 -19 5 -35 10 -35 6 0 10 13 10 29 0 16 6 32 13 34 6 3
2 6 -10 6 -20 1 -23 -4 -23 -34z"/>
<path d="M3835 6281 c-3 -6 0 -9 7 -6 9 4 14 -3 16 -20 1 -14 -3 -25 -9 -25
-6 0 -9 7 -5 15 3 8 1 15 -4 15 -6 0 -10 -9 -10 -20 0 -15 7 -20 26 -20 23 0
25 3 22 32 -3 33 -29 50 -43 29z"/>
<path d="M3383 6203 c59 -2 155 -2 215 0 59 1 10 3 -108 3 -118 0 -167 -2
-107 -3z"/>
<path d="M3778 6203 c23 -2 59 -2 80 0 20 2 1 4 -43 4 -44 0 -61 -2 -37 -4z"/>
<path d="M392 5963 c1 -38 2 -41 5 -15 4 29 6 32 20 20 15 -12 15 -11 5 9 -22
41 -32 36 -30 -14z"/>
<path d="M641 5969 c-1 -41 1 -46 21 -45 12 0 23 8 25 16 4 13 3 13 -6 0 -8
-11 -13 -12 -22 -3 -16 16 -3 47 17 39 9 -3 12 -2 9 5 -4 6 -13 8 -20 5 -8 -3
-16 3 -18 12 -3 9 -5 -4 -6 -29z"/>
<path d="M484 5976 c-9 -23 0 -51 17 -54 19 -4 32 23 24 49 -7 22 -33 25 -41
5z m31 -21 c0 -10 -6 -20 -12 -22 -8 -3 -13 5 -13 22 0 17 5 25 13 23 6 -3 12
-13 12 -23z"/>
<path d="M541 5951 c1 -35 2 -35 8 -7 9 42 29 44 34 4 l5 -33 -2 35 c-1 29 -5
35 -23 36 -20 1 -23 -3 -22 -35z"/>
<path d="M605 5980 c3 -5 8 -10 11 -10 2 0 4 5 4 10 0 6 -5 10 -11 10 -5 0 -7
-4 -4 -10z"/>
<path d="M711 5953 c2 -35 2 -35 6 -8 3 16 10 33 16 37 8 5 6 8 -5 8 -14 0
-18 -8 -17 -37z"/>
<path d="M757 5984 c-4 -4 -7 -18 -7 -31 0 -26 26 -41 42 -25 8 8 5 9 -11 5
-12 -3 -21 -1 -21 6 0 6 9 11 21 11 14 0 19 5 17 17 -3 19 -29 29 -41 17z m33
-14 c0 -5 -7 -10 -15 -10 -8 0 -15 5 -15 10 0 6 7 10 15 10 8 0 15 -4 15 -10z"/>
<path d="M436 5935 c4 -8 8 -15 10 -15 2 0 4 7 4 15 0 8 -4 15 -10 15 -5 0 -7
-7 -4 -15z"/>
<path d="M415 5700 c-3 -5 -1 -10 4 -10 6 0 11 5 11 10 0 6 -2 10 -4 10 -3 0
-8 -4 -11 -10z"/>
<path d="M603 5665 c0 -27 2 -38 4 -22 2 15 2 37 0 50 -2 12 -4 0 -4 -28z"/>
<path d="M633 5665 c0 -27 2 -38 4 -22 2 15 2 37 0 50 -2 12 -4 0 -4 -28z"/>
<path d="M720 5700 c0 -5 -6 -10 -14 -10 -18 0 -29 -31 -20 -54 3 -9 15 -16
25 -16 16 0 19 8 19 45 0 25 -2 45 -5 45 -3 0 -5 -4 -5 -10z m0 -45 c0 -26
-14 -33 -25 -15 -9 14 1 40 15 40 5 0 10 -11 10 -25z"/>
<path d="M472 5645 c-1 -27 2 -45 6 -39 4 6 15 13 25 17 21 8 20 59 -1 63 -7
1 -8 0 -2 -3 16 -7 12 -53 -4 -53 -9 0 -16 13 -19 33 -3 23 -4 18 -5 -18z"/>
<path d="M547 5683 c-16 -15 -5 -33 19 -33 20 0 25 4 20 16 -3 9 -6 18 -6 20
0 7 -26 5 -33 -3z m28 -13 c3 -5 -1 -10 -9 -10 -9 0 -16 5 -16 10 0 6 4 10 9
10 6 0 13 -4 16 -10z"/>
<path d="M663 5655 c0 -22 2 -30 4 -17 2 12 2 30 0 40 -3 9 -5 -1 -4 -23z"/>
<path d="M754 5676 c-10 -26 0 -51 21 -51 16 0 20 7 20 30 0 33 -30 49 -41 21z
m36 -21 c0 -16 -6 -25 -15 -25 -9 0 -15 9 -15 25 0 16 6 25 15 25 9 0 15 -9
15 -25z"/>
<path d="M397 5660 c-3 -13 -4 -26 -2 -29 3 -2 5 1 5 7 0 18 31 14 47 -5 13
-16 13 -16 3 5 -6 12 -17 22 -25 22 -7 0 -15 6 -17 12 -3 7 -7 2 -11 -12z"/>
<path d="M547 5628 c2 -5 10 -8 18 -8 8 0 16 3 18 8 3 4 -5 7 -18 7 -13 0 -21
-3 -18 -7z"/>
<path d="M3003 5703 c9 -2 23 -2 30 0 6 3 -1 5 -18 5 -16 0 -22 -2 -12 -5z"/>
<path d="M3063 5665 c0 -27 2 -40 4 -27 5 27 19 28 35 2 7 -11 17 -20 22 -20
5 0 -1 11 -14 25 -23 25 -23 25 -4 47 18 22 18 22 -8 0 l-26 -24 -5 24 c-2 12
-4 1 -4 -27z"/>
<path d="M2998 5663 c6 -2 18 -2 25 0 6 3 1 5 -13 5 -14 0 -19 -2 -12 -5z"/>
<path d="M3293 5998 c-5 -7 -6 -29 -2 -48 l6 -35 2 33 c0 17 1 35 0 38 0 4 5
11 13 15 8 5 9 9 2 9 -6 0 -16 -6 -21 -12z"/>
<path d="M3453 5965 c0 -27 2 -38 4 -22 2 15 2 37 0 50 -2 12 -4 0 -4 -28z"/>
<path d="M3343 5984 c24 -8 22 -28 -3 -21 -12 3 -20 0 -20 -8 0 -8 9 -11 25
-7 31 5 30 36 0 39 -16 1 -16 1 -2 -3z"/>
<path d="M3397 5983 c-4 -3 -7 -17 -7 -30 0 -26 26 -41 42 -25 8 8 5 9 -11 5
-17 -4 -21 -1 -21 20 0 16 7 27 18 30 14 4 14 5 1 6 -9 0 -19 -2 -22 -6z"/>
<path d="M3477 5983 c6 -4 13 -22 16 -38 4 -27 5 -27 3 4 0 21 -7 36 -16 38
-10 3 -11 2 -3 -4z"/>
<path d="M3526 5981 c-4 -5 3 -7 14 -4 23 6 26 13 6 13 -8 0 -17 -4 -20 -9z"/>
<path d="M3520 5940 c0 -15 6 -19 24 -18 14 1 22 6 20 10 -3 4 -11 5 -19 1 -8
-3 -15 0 -15 5 0 6 8 13 18 15 13 4 11 5 -5 6 -17 1 -23 -5 -23 -19z"/>
<path d="M3345 5930 c-16 -7 -17 -9 -3 -9 9 -1 20 4 23 9 7 11 7 11 -20 0z"/>
<path d="M3360 5701 c0 -5 -9 -11 -21 -14 -30 -8 -23 -62 9 -63 20 -1 22 3 22
42 0 24 -2 44 -5 44 -3 0 -5 -4 -5 -9z m-5 -46 c0 -10 -6 -20 -12 -22 -8 -3
-13 5 -13 22 0 17 5 25 13 23 6 -3 12 -13 12 -23z"/>
<path d="M3513 5665 c0 -27 2 -38 4 -22 2 15 2 37 0 50 -2 12 -4 0 -4 -28z"/>
<path d="M3698 5700 c-5 -17 3 -80 11 -80 7 0 6 79 -2 86 -3 3 -7 0 -9 -6z"/>
<path d="M3903 5665 c0 -27 2 -40 4 -27 3 14 9 20 16 16 7 -4 9 -4 5 1 -4 4
-2 15 5 24 10 14 10 14 -5 3 -14 -11 -17 -10 -21 10 -2 13 -4 1 -4 -27z"/>
<path d="M3293 5655 c0 -22 2 -30 4 -17 2 12 2 30 0 40 -3 9 -5 -1 -4 -23z"/>
<path d="M3457 5683 c-4 -3 -7 -17 -7 -30 0 -26 26 -41 42 -25 8 8 5 9 -11 5
-17 -4 -21 -1 -21 20 0 16 7 27 18 30 14 4 14 5 1 6 -9 0 -19 -2 -22 -6z"/>
<path d="M3543 5655 c0 -22 2 -30 4 -17 2 12 2 30 0 40 -3 9 -5 -1 -4 -23z"/>
<path d="M3583 5684 c24 -8 22 -28 -3 -21 -12 3 -20 0 -20 -8 0 -8 9 -11 25
-7 31 5 30 36 0 39 -16 1 -16 1 -2 -3z"/>
<path d="M3632 5653 c1 -37 1 -37 5 -5 3 18 10 32 18 32 8 0 16 -14 18 -32 l5
-33 -2 35 c-1 28 -5 36 -23 38 -21 3 -23 -1 -21 -35z"/>
<path d="M3737 5684 c-4 -4 -7 -18 -7 -31 0 -26 26 -41 42 -25 8 8 5 9 -11 5
-12 -3 -21 -1 -21 6 0 6 9 11 21 11 14 0 19 5 17 17 -3 19 -29 29 -41 17z m33
-14 c0 -5 -7 -10 -15 -10 -8 0 -15 5 -15 10 0 6 7 10 15 10 8 0 15 -4 15 -10z"/>
<path d="M3868 5655 c2 -19 5 -35 7 -35 2 0 5 16 7 35 2 21 0 35 -7 35 -7 0
-9 -14 -7 -35z"/>
<path d="M3585 5630 c-16 -7 -17 -9 -3 -9 9 -1 20 4 23 9 7 11 7 11 -20 0z"/>
<path d="M3388 5603 c12 -2 30 -2 40 0 9 3 -1 5 -23 4 -22 0 -30 -2 -17 -4z"/>
<path d="M3803 5603 c9 -2 25 -2 35 0 9 3 1 5 -18 5 -19 0 -27 -2 -17 -5z"/>
<path d="M6500 6285 l0 -225 -150 0 -150 0 0 -1030 0 -1030 2805 0 2805 0 0
1030 0 1030 -250 0 -250 0 0 225 0 225 -905 0 -905 0 0 -225 0 -225 -595 0
-595 0 0 225 0 225 -905 0 -905 0 0 -225z m1800 70 l0 -145 -895 0 -895 0 0
145 0 145 895 0 895 0 0 -145z m3000 0 l0 -145 -895 0 -895 0 0 145 0 145 895
0 895 0 0 -145z m-4500 -300 l0 -145 -145 0 -145 0 0 145 0 145 145 0 145 0 0
-145z m1500 0 l0 -145 -745 0 -745 0 0 145 0 145 745 0 745 0 0 -145z m1500 0
l0 -145 -145 0 -145 0 0 145 0 145 145 0 145 0 0 -145z m1500 0 l0 -145 -745
0 -745 0 0 145 0 145 745 0 745 0 0 -145z m-4800 -680 l0 -675 905 0 905 0 0
675 0 675 595 0 595 0 0 -675 0 -675 905 0 905 0 0 675 0 675 245 0 245 0 0
-1020 0 -1020 -2795 0 -2795 0 0 1020 0 1020 145 0 145 0 0 -675z m300 -70 l0
-595 -145 0 -145 0 0 595 0 595 145 0 145 0 0 -595z m1500 0 l0 -595 -745 0
-745 0 0 595 0 595 745 0 745 0 0 -595z m1500 0 l0 -595 -145 0 -145 0 0 595
0 595 145 0 145 0 0 -595z m1500 0 l0 -595 -745 0 -745 0 0 595 0 595 745 0
745 0 0 -595z"/>
<path d="M7130 6365 c0 -44 0 -45 33 -44 30 2 30 2 5 6 -34 5 -37 30 -5 36
l22 4 -22 2 c-33 2 -29 29 5 34 25 4 25 4 -5 6 -33 1 -33 0 -33 -44z"/>
<path d="M7393 6365 c0 -27 2 -38 4 -22 2 15 2 37 0 50 -2 12 -4 0 -4 -28z"/>
<path d="M7590 6400 c0 -5 -6 -10 -14 -10 -18 0 -29 -31 -20 -54 3 -9 17 -16
30 -16 22 0 24 4 24 45 0 25 -4 45 -10 45 -5 0 -10 -4 -10 -10z m0 -45 c0 -14
-4 -25 -9 -25 -12 0 -23 29 -15 41 10 18 24 9 24 -16z"/>
<path d="M7213 6355 c0 -22 2 -30 4 -17 2 12 2 30 0 40 -3 9 -5 -1 -4 -23z"/>
<path d="M7239 6376 c5 -6 11 -22 14 -36 4 -21 4 -20 6 8 0 17 5 32 10 32 6 0
12 -15 14 -32 l4 -33 1 37 c2 35 0 37 -28 36 -20 -1 -27 -5 -21 -12z"/>
<path d="M7322 6343 l1 -48 4 43 c4 42 18 55 29 27 4 -8 0 -23 -7 -32 -12 -14
-12 -16 1 -11 9 3 15 17 15 34 0 22 -5 30 -22 32 -21 3 -23 0 -21 -45z"/>
<path d="M7427 6384 c-4 -4 -7 -18 -7 -31 0 -27 26 -41 43 -24 9 9 8 11 -4 6
-10 -4 -20 -2 -24 4 -3 7 3 11 15 11 15 0 20 5 18 17 -3 19 -29 29 -41 17z
m33 -14 c0 -5 -7 -10 -16 -10 -8 0 -12 5 -9 10 3 6 10 10 16 10 5 0 9 -4 9
-10z"/>
<path d="M7495 6380 c-3 -5 0 -7 7 -5 9 4 14 -3 16 -20 1 -14 -3 -25 -8 -25
-6 0 -10 7 -10 16 0 8 -4 13 -10 9 -16 -10 1 -35 24 -35 19 0 21 4 18 35 -4
34 -23 47 -37 25z"/>
<path d="M7634 6376 c-10 -26 0 -51 21 -51 16 0 20 7 20 30 0 33 -30 49 -41
21z m36 -21 c0 -16 -6 -25 -15 -25 -9 0 -15 9 -15 25 0 16 6 25 15 25 9 0 15
-9 15 -25z"/>
<path d="M10181 6363 c2 -46 2 -46 8 -13 l7 35 8 -32 c4 -18 11 -33 16 -33 4
0 11 15 15 33 l8 32 7 -35 c7 -34 7 -33 9 13 1 35 -3 47 -11 45 -7 -3 -14 -14
-16 -26 -4 -30 -18 -28 -26 3 -11 42 -26 28 -25 -22z"/>
<path d="M10281 6372 c-6 -11 -6 -24 0 -35 11 -18 39 -24 39 -7 0 5 -7 7 -15
4 -8 -4 -15 -1 -15 5 0 6 9 11 21 11 15 0 19 4 15 16 -3 9 -6 18 -6 20 0 12
-31 1 -39 -14z m34 -2 c3 -5 -1 -10 -9 -10 -9 0 -16 5 -16 10 0 6 4 10 9 10 6
0 13 -4 16 -10z"/>
<path d="M10353 6355 c0 -22 2 -30 4 -17 2 12 2 30 0 40 -3 9 -5 -1 -4 -23z"/>
<path d="M10378 6355 c2 -19 8 -35 13 -35 10 0 12 31 3 54 -11 28 -20 17 -16
-19z"/>
<path d="M10427 6383 c-13 -12 -7 -33 8 -33 8 0 15 -5 15 -11 0 -6 -7 -8 -16
-5 -8 3 -12 2 -9 -4 8 -13 32 -13 41 1 4 7 -4 20 -17 31 -16 14 -18 18 -6 14
9 -3 17 -1 17 4 0 11 -23 13 -33 3z"/>
<path d="M10505 6381 c19 -8 19 -8 -3 -15 -29 -10 -25 -40 6 -44 21 -3 23 0
20 30 -2 24 -8 33 -23 35 l-20 3 20 -9z m15 -30 c0 -12 -20 -25 -27 -18 -7 7
6 27 18 27 5 0 9 -4 9 -9z"/>
<path d="M10548 6345 c-2 -27 1 -44 7 -42 13 5 19 87 7 87 -6 0 -12 -20 -14
-45z"/>
<path d="M10586 6372 c-12 -37 21 -72 39 -42 3 5 0 7 -8 4 -8 -3 -18 -1 -22 5
-3 7 3 11 15 11 15 0 20 5 18 17 -5 25 -35 28 -42 5z m34 -2 c0 -5 -7 -10 -16
-10 -8 0 -12 5 -9 10 3 6 10 10 16 10 5 0 9 -4 9 -10z"/>
<path d="M6581 6063 c1 -26 3 -40 6 -31 2 9 14 18 26 20 16 2 22 10 22 28 0
20 -6 26 -27 28 -27 3 -28 2 -27 -45z m44 17 c0 -8 -8 -16 -17 -18 -13 -2 -18
3 -18 18 0 15 5 20 18 18 9 -2 17 -10 17 -18z"/>
<path d="M6662 6065 c-1 -40 1 -45 8 -27 12 27 27 28 35 2 3 -11 11 -20 17
-20 6 0 3 12 -7 26 -16 24 -16 27 1 45 9 10 13 19 7 19 -5 0 -18 -9 -29 -21
l-19 -21 -6 24 c-5 15 -7 7 -7 -27z"/>
<path d="M6960 6101 c0 -5 -9 -11 -21 -14 -30 -8 -23 -61 9 -65 20 -3 22 1 22
42 0 25 -2 46 -5 46 -3 0 -5 -4 -5 -9z m0 -46 c0 -26 -14 -33 -25 -15 -9 14 1
40 15 40 5 0 10 -11 10 -25z"/>
<path d="M7313 6065 c0 -27 2 -38 4 -22 2 15 2 37 0 50 -2 12 -4 0 -4 -28z"/>
<path d="M6893 6055 c0 -22 2 -30 4 -17 2 12 2 30 0 40 -3 9 -5 -1 -4 -23z"/>
<path d="M7067 6084 c-4 -4 -7 -18 -7 -31 0 -27 26 -41 43 -24 9 9 8 11 -4 6
-10 -4 -20 -2 -24 4 -3 7 3 11 15 11 15 0 20 5 18 17 -3 19 -29 29 -41 17z
m33 -14 c0 -5 -7 -10 -16 -10 -8 0 -12 5 -9 10 3 6 10 10 16 10 5 0 9 -4 9
-10z"/>
<path d="M7133 6055 c0 -22 2 -30 4 -17 2 12 2 30 0 40 -3 9 -5 -1 -4 -23z"/>
<path d="M7157 6083 c6 -4 13 -22 16 -38 4 -27 5 -27 3 4 0 21 -7 36 -16 38
-10 3 -11 2 -3 -4z"/>
<path d="M7198 6055 c2 -19 8 -35 14 -35 13 0 6 63 -8 67 -6 2 -8 -10 -6 -32z"/>
<path d="M7242 6045 c0 -27 2 -43 6 -35 4 8 14 15 22 15 19 0 21 57 2 61 -7 1
-8 0 -2 -3 5 -2 10 -16 10 -30 0 -34 -23 -24 -31 13 -5 22 -7 18 -7 -21z"/>
<path d="M7347 6084 c-4 -4 -7 -18 -7 -31 0 -27 26 -41 43 -24 9 9 8 11 -4 6
-10 -4 -20 -2 -24 4 -3 7 3 11 15 11 15 0 20 5 18 17 -3 19 -29 29 -41 17z
m33 -14 c0 -5 -7 -10 -16 -10 -8 0 -12 5 -9 10 3 6 10 10 16 10 5 0 9 -4 9
-10z"/>
<path d="M6963 6003 c48 -2 126 -2 175 0 48 1 8 3 -88 3 -96 0 -136 -2 -87 -3z"/>
<path d="M7293 6003 c20 -2 54 -2 75 0 20 2 3 4 -38 4 -41 0 -58 -2 -37 -4z"/>
<path d="M9581 6063 c1 -26 3 -40 6 -31 2 9 14 18 26 20 16 2 22 10 22 28 0
20 -6 26 -27 28 -27 3 -28 2 -27 -45z m44 17 c0 -8 -8 -16 -17 -18 -13 -2 -18
3 -18 18 0 15 5 20 18 18 9 -2 17 -10 17 -18z"/>
<path d="M9662 6065 c-1 -40 1 -45 8 -27 12 27 27 28 35 2 3 -11 11 -20 17
-20 6 0 3 12 -7 26 -16 24 -16 27 1 45 9 10 13 19 7 19 -5 0 -18 -9 -29 -21
l-19 -21 -6 24 c-5 15 -7 7 -7 -27z"/>
<path d="M9960 6101 c0 -5 -9 -11 -21 -14 -30 -8 -23 -61 9 -65 20 -3 22 1 22
42 0 25 -2 46 -5 46 -3 0 -5 -4 -5 -9z m0 -46 c0 -26 -14 -33 -25 -15 -9 14 1
40 15 40 5 0 10 -11 10 -25z"/>
<path d="M9893 6055 c0 -22 2 -30 4 -17 2 12 2 30 0 40 -3 9 -5 -1 -4 -23z"/>
<path d="M10061 6053 c1 -36 2 -36 8 -9 9 43 31 45 32 4 l1 -33 7 29 c9 42 29
44 34 4 l5 -33 -2 35 c-1 34 -2 35 -43 38 l-43 3 1 -38z"/>
<path d="M10177 6084 c-4 -4 -7 -18 -7 -31 0 -27 26 -41 43 -23 9 10 7 11 -10
5 -14 -4 -23 -2 -23 4 0 6 9 11 21 11 14 0 19 5 17 17 -3 19 -29 29 -41 17z
m28 -14 c3 -5 -1 -10 -9 -10 -9 0 -16 5 -16 10 0 6 4 10 9 10 6 0 13 -4 16
-10z"/>
<path d="M10243 6055 c0 -22 2 -30 4 -17 2 12 2 30 0 40 -3 9 -5 -1 -4 -23z"/>
<path d="M10267 6083 c6 -4 13 -22 16 -38 4 -27 5 -27 3 4 0 21 -7 36 -16 38
-10 3 -11 2 -3 -4z"/>
<path d="M9983 6003 c59 -2 155 -2 215 0 59 1 10 3 -108 3 -118 0 -167 -2
-107 -3z"/>
<path d="M6892 5763 c1 -38 2 -41 5 -15 4 29 6 32 20 20 15 -12 15 -11 5 9
-22 41 -32 36 -30 -14z"/>
<path d="M7141 5769 c-1 -41 1 -46 21 -45 12 0 23 8 25 16 4 13 3 13 -6 0 -8
-11 -13 -12 -22 -3 -16 16 -3 47 17 39 9 -3 12 -2 9 5 -4 6 -13 8 -20 5 -8 -3
-16 3 -18 12 -3 9 -5 -4 -6 -29z"/>
<path d="M6984 5776 c-9 -23 0 -51 17 -54 19 -4 32 23 24 49 -7 22 -33 25 -41
5z m31 -21 c0 -10 -6 -20 -12 -22 -8 -3 -13 5 -13 22 0 17 5 25 13 23 6 -3 12
-13 12 -23z"/>
<path d="M7041 5751 c1 -35 2 -35 8 -7 9 42 29 44 34 4 l5 -33 -2 35 c-1 29
-5 35 -23 36 -20 1 -23 -3 -22 -35z"/>
<path d="M7105 5780 c3 -5 8 -10 11 -10 2 0 4 5 4 10 0 6 -5 10 -11 10 -5 0
-7 -4 -4 -10z"/>
<path d="M7211 5753 c2 -35 2 -35 6 -8 3 16 10 33 16 37 8 5 6 8 -5 8 -14 0
-18 -8 -17 -37z"/>
<path d="M7257 5784 c-4 -4 -7 -18 -7 -31 0 -26 26 -41 42 -25 8 8 5 9 -11 5
-12 -3 -21 -1 -21 6 0 6 9 11 21 11 14 0 19 5 17 17 -3 19 -29 29 -41 17z m33
-14 c0 -5 -7 -10 -15 -10 -8 0 -15 5 -15 10 0 6 7 10 15 10 8 0 15 -4 15 -10z"/>
<path d="M6936 5735 c4 -8 8 -15 10 -15 2 0 4 7 4 15 0 8 -4 15 -10 15 -5 0
-7 -7 -4 -15z"/>
<path d="M6915 5500 c-3 -5 -1 -10 4 -10 6 0 11 5 11 10 0 6 -2 10 -4 10 -3 0
-8 -4 -11 -10z"/>
<path d="M7103 5465 c0 -27 2 -38 4 -22 2 15 2 37 0 50 -2 12 -4 0 -4 -28z"/>
<path d="M7133 5465 c0 -27 2 -38 4 -22 2 15 2 37 0 50 -2 12 -4 0 -4 -28z"/>
<path d="M7220 5500 c0 -5 -6 -10 -14 -10 -18 0 -29 -31 -20 -54 3 -9 15 -16
25 -16 16 0 19 8 19 45 0 25 -2 45 -5 45 -3 0 -5 -4 -5 -10z m0 -45 c0 -26
-14 -33 -25 -15 -9 14 1 40 15 40 5 0 10 -11 10 -25z"/>
<path d="M6972 5445 c-1 -27 2 -45 6 -39 4 6 15 13 25 17 21 8 20 59 -1 63 -7
1 -8 0 -2 -3 16 -7 12 -53 -4 -53 -9 0 -16 13 -19 33 -3 23 -4 18 -5 -18z"/>
<path d="M7047 5483 c-16 -15 -5 -33 19 -33 20 0 25 4 20 16 -3 9 -6 18 -6 20
0 7 -26 5 -33 -3z m28 -13 c3 -5 -1 -10 -9 -10 -9 0 -16 5 -16 10 0 6 4 10 9
10 6 0 13 -4 16 -10z"/>
<path d="M7163 5455 c0 -22 2 -30 4 -17 2 12 2 30 0 40 -3 9 -5 -1 -4 -23z"/>
<path d="M7254 5476 c-10 -26 0 -51 21 -51 16 0 20 7 20 30 0 33 -30 49 -41
21z m36 -21 c0 -16 -6 -25 -15 -25 -9 0 -15 9 -15 25 0 16 6 25 15 25 9 0 15
-9 15 -25z"/>
<path d="M6897 5460 c-3 -13 -4 -26 -2 -29 3 -2 5 1 5 7 0 18 31 14 47 -5 13
-16 13 -16 3 5 -6 12 -17 22 -25 22 -7 0 -15 6 -17 12 -3 7 -7 2 -11 -12z"/>
<path d="M7047 5428 c2 -5 10 -8 18 -8 8 0 16 3 18 8 3 4 -5 7 -18 7 -13 0
-21 -3 -18 -7z"/>
<path d="M6900 5196 c-15 -20 -9 -56 12 -70 14 -8 21 -6 35 9 16 17 17 18 1 6
-25 -18 -48 -7 -48 24 0 31 24 42 48 24 15 -13 16 -12 3 4 -16 21 -35 22 -51
3z"/>
<path d="M7108 5200 c-5 -17 3 -80 11 -80 7 0 6 79 -2 86 -3 3 -7 0 -9 -6z"/>
<path d="M6984 5176 c-9 -23 0 -51 17 -54 19 -4 32 23 24 49 -7 22 -33 25 -41
5z m31 -21 c0 -10 -6 -20 -12 -22 -8 -3 -13 5 -13 22 0 17 5 25 13 23 6 -3 12
-13 12 -23z"/>
<path d="M7041 5151 c1 -35 2 -35 8 -7 9 42 29 44 34 4 l5 -33 -2 35 c-1 29
-5 35 -23 36 -20 1 -23 -3 -22 -35z"/>
<path d="M7141 5153 c2 -35 2 -35 6 -8 3 16 10 33 16 37 8 5 6 8 -5 8 -14 0
-18 -8 -17 -37z"/>
<path d="M7186 5181 c-3 -5 3 -7 14 -4 11 3 20 1 20 -5 0 -5 -9 -12 -21 -15
-22 -6 -22 -29 -1 -33 7 -1 8 0 2 3 -15 7 -12 23 4 23 8 0 17 -8 20 -17 2 -10
4 -2 3 17 -2 34 -27 54 -41 31z"/>
<path d="M7254 5178 c-4 -6 0 -16 9 -23 22 -16 21 -22 0 -28 -16 -4 -16 -5 -1
-6 24 -2 34 20 15 34 -21 15 -22 29 -1 21 8 -3 12 -2 9 4 -8 13 -22 13 -31 -2z"/>
<path d="M7317 5184 c-4 -4 -7 -18 -7 -31 0 -26 26 -41 42 -25 8 8 5 9 -11 5
-12 -3 -21 -1 -21 6 0 6 9 11 21 11 14 0 19 5 17 17 -3 19 -29 29 -41 17z m33
-14 c0 -5 -7 -10 -15 -10 -8 0 -15 5 -15 10 0 6 7 10 15 10 8 0 15 -4 15 -10z"/>
<path d="M7382 5153 l1 -38 4 33 c3 24 8 32 19 28 8 -3 14 -1 14 4 0 6 -9 10
-20 10 -17 0 -20 -6 -18 -37z"/>
<path d="M7446 5181 c-3 -5 3 -7 14 -4 11 3 20 1 20 -5 0 -5 -9 -12 -21 -15
-22 -6 -22 -29 -1 -33 7 -1 8 0 2 3 -15 7 -12 23 4 23 8 0 17 -8 20 -17 2 -10
4 -2 3 17 -2 34 -27 54 -41 31z"/>
<path d="M7153 4865 c0 -27 2 -38 4 -22 2 15 2 37 0 50 -2 12 -4 0 -4 -28z"/>
<path d="M6893 4855 c0 -22 2 -30 4 -17 2 12 2 30 0 40 -3 9 -5 -1 -4 -23z"/>
<path d="M6920 4886 c0 -2 9 -6 20 -9 11 -3 18 -1 14 4 -5 9 -34 13 -34 5z"/>
<path d="M7046 4881 c-3 -5 3 -7 14 -4 11 3 20 1 20 -5 0 -5 -9 -12 -21 -15
-22 -6 -22 -29 -1 -33 7 -1 8 0 2 3 -15 7 -12 23 4 23 8 0 17 -8 20 -17 2 -10
4 -2 3 17 -2 34 -27 54 -41 31z"/>
<path d="M7114 4876 c-8 -22 -1 -49 14 -52 7 -1 8 0 2 3 -14 7 -13 50 3 56 9
4 9 6 -1 6 -7 1 -15 -5 -18 -13z"/>
<path d="M7182 4853 c1 -35 2 -35 5 -7 3 26 8 31 33 31 25 0 30 -5 33 -31 4
-28 4 -28 3 4 -1 33 -3 35 -38 38 -38 2 -38 2 -36 -35z"/>
<path d="M7283 4855 c0 -22 2 -30 4 -17 2 12 2 30 0 40 -3 9 -5 -1 -4 -23z"/>
<path d="M7301 4851 c1 -35 2 -35 8 -7 9 42 29 44 34 4 l5 -33 -2 35 c-1 29
-5 35 -23 36 -20 1 -23 -3 -22 -35z"/>
<path d="M6940 4853 c15 -7 12 -21 -5 -26 -11 -4 -10 -4 2 -3 21 2 25 28 5 32
-7 1 -8 0 -2 -3z"/>
<path d="M6983 4803 c9 -2 25 -2 35 0 9 3 1 5 -18 5 -19 0 -27 -2 -17 -5z"/>
<path d="M9603 5803 c9 -2 23 -2 30 0 6 3 -1 5 -18 5 -16 0 -22 -2 -12 -5z"/>
<path d="M9663 5765 c0 -27 2 -40 4 -27 5 27 19 28 35 2 7 -11 17 -20 22 -20
5 0 -1 11 -14 25 -23 25 -23 25 -4 47 18 22 18 22 -8 0 l-26 -24 -5 24 c-2 12
-4 1 -4 -27z"/>
<path d="M9598 5763 c6 -2 18 -2 25 0 6 3 1 5 -13 5 -14 0 -19 -2 -12 -5z"/>
<path d="M9603 5503 c9 -2 23 -2 30 0 6 3 -1 5 -18 5 -16 0 -22 -2 -12 -5z"/>
<path d="M9663 5465 c0 -27 2 -40 4 -27 5 27 19 28 35 2 7 -11 17 -20 22 -20
5 0 -1 11 -14 25 -23 25 -23 25 -4 47 18 22 18 22 -8 0 l-26 -24 -5 24 c-2 12
-4 1 -4 -27z"/>
<path d="M9598 5463 c6 -2 18 -2 25 0 6 3 1 5 -13 5 -14 0 -19 -2 -12 -5z"/>
<path d="M9960 5801 c0 -5 -9 -11 -21 -14 -30 -8 -23 -62 9 -63 20 -1 22 3 22
42 0 24 -2 44 -5 44 -3 0 -5 -4 -5 -9z m-5 -46 c0 -10 -6 -20 -12 -22 -8 -3
-13 5 -13 22 0 17 5 25 13 23 6 -3 12 -13 12 -23z"/>
<path d="M10283 5765 c0 -27 2 -38 4 -22 2 15 2 37 0 50 -2 12 -4 0 -4 -28z"/>
<path d="M10480 5800 c0 -5 -6 -10 -14 -10 -18 0 -29 -31 -20 -54 3 -9 15 -16
25 -16 16 0 19 8 19 45 0 25 -2 45 -5 45 -3 0 -5 -4 -5 -10z m0 -45 c0 -26
-14 -33 -25 -15 -9 14 1 40 15 40 5 0 10 -11 10 -25z"/>
<path d="M9893 5755 c0 -22 2 -30 4 -17 2 12 2 30 0 40 -3 9 -5 -1 -4 -23z"/>
<path d="M10057 5784 c-4 -4 -7 -18 -7 -31 0 -26 26 -41 42 -25 8 8 5 9 -11 5
-12 -3 -21 -1 -21 6 0 6 9 11 21 11 14 0 19 5 17 17 -3 19 -29 29 -41 17z m33
-14 c0 -5 -7 -10 -15 -10 -8 0 -15 5 -15 10 0 6 7 10 15 10 8 0 15 -4 15 -10z"/>
<path d="M10122 5753 c1 -35 2 -35 5 -7 3 26 8 31 33 31 25 0 30 -5 33 -31 4
-28 4 -28 3 4 -1 33 -3 35 -38 38 -38 2 -38 2 -36 -35z"/>
<path d="M10220 5743 c0 -27 4 -43 8 -37 4 6 14 14 22 17 12 4 11 6 -2 6 -12
1 -18 9 -18 25 0 15 7 26 18 29 13 4 11 5 -5 6 -21 1 -23 -4 -23 -46z"/>
<path d="M10317 5784 c-4 -4 -7 -18 -7 -31 0 -26 26 -41 42 -25 8 8 5 9 -11 5
-12 -3 -21 -1 -21 6 0 6 9 11 21 11 14 0 19 5 17 17 -3 19 -29 29 -41 17z m33
-14 c0 -5 -7 -10 -15 -10 -8 0 -15 5 -15 10 0 6 7 10 15 10 8 0 15 -4 15 -10z"/>
<path d="M10386 5781 c-4 -5 3 -7 14 -4 23 6 26 13 6 13 -8 0 -17 -4 -20 -9z"/>
<path d="M10514 5776 c-10 -26 0 -51 21 -51 16 0 20 7 20 30 0 33 -30 49 -41
21z m36 -21 c0 -16 -6 -25 -15 -25 -9 0 -15 9 -15 25 0 16 6 25 15 25 9 0 15
-9 15 -25z"/>
<path d="M10652 5778 c-16 -16 -15 -33 3 -48 13 -10 18 -11 28 -1 9 10 8 11
-4 6 -10 -4 -20 -2 -24 4 -3 7 3 11 17 12 23 1 23 1 -2 8 -17 5 -21 9 -12 15
6 4 17 4 24 0 7 -4 8 -3 4 4 -9 15 -19 15 -34 0z"/>
<path d="M10713 5755 c0 -22 2 -30 4 -17 2 12 2 30 0 40 -3 9 -5 -1 -4 -23z"/>
<path d="M10739 5781 c8 -5 20 -7 27 -4 8 3 14 -6 17 -24 l4 -28 -1 30 c-1 26
-5 30 -31 32 -20 1 -25 -1 -16 -6z"/>
<path d="M10813 5755 c0 -22 2 -30 4 -17 2 12 2 30 0 40 -3 9 -5 -1 -4 -23z"/>
<path d="M10840 5786 c0 -2 9 -6 20 -9 11 -3 18 -1 14 4 -5 9 -34 13 -34 5z"/>
<path d="M10904 5776 c-9 -23 0 -51 17 -54 19 -4 32 23 24 49 -7 22 -33 25
-41 5z m31 -21 c0 -10 -6 -20 -12 -22 -8 -3 -13 5 -13 22 0 17 5 25 13 23 6
-3 12 -13 12 -23z"/>
<path d="M10970 5779 c0 -5 5 -7 10 -4 6 3 10 8 10 11 0 2 -4 4 -10 4 -5 0
-10 -5 -10 -11z"/>
<path d="M10261 5754 c0 -11 3 -14 6 -6 3 7 2 16 -1 19 -3 4 -6 -2 -5 -13z"/>
<path d="M10380 5740 c0 -15 6 -19 24 -18 14 1 22 6 20 10 -3 4 -11 5 -19 1
-8 -3 -15 0 -15 5 0 6 8 13 18 15 13 4 11 5 -5 6 -17 1 -23 -5 -23 -19z"/>
<path d="M10860 5753 c15 -7 12 -21 -5 -26 -11 -4 -10 -4 2 -3 21 2 25 28 5
32 -7 1 -8 0 -2 -3z"/>
<path d="M9988 5703 c12 -2 30 -2 40 0 9 3 -1 5 -23 4 -22 0 -30 -2 -17 -4z"/>
<path d="M10583 5703 c9 -2 25 -2 35 0 9 3 1 5 -18 5 -19 0 -27 -2 -17 -5z"/>
<path d="M9893 5465 c0 -27 2 -38 4 -22 2 15 2 37 0 50 -2 12 -4 0 -4 -28z"/>
<path d="M9960 5500 c0 -5 -6 -10 -14 -10 -18 0 -29 -31 -20 -54 3 -9 15 -16
25 -16 16 0 19 8 19 45 0 25 -2 45 -5 45 -3 0 -5 -4 -5 -10z m0 -45 c0 -26
-14 -33 -25 -15 -9 14 1 40 15 40 5 0 10 -11 10 -25z"/>
<path d="M10293 5465 c0 -27 2 -38 4 -22 2 15 2 37 0 50 -2 12 -4 0 -4 -28z"/>
<path d="M10493 5465 c0 -27 2 -38 4 -22 2 15 2 37 0 50 -2 12 -4 0 -4 -28z"/>
<path d="M10948 5500 c-5 -17 3 -80 11 -80 7 0 6 79 -2 86 -3 3 -7 0 -9 -6z"/>
<path d="M10067 5483 c-16 -15 -5 -33 19 -33 20 0 25 4 20 16 -3 9 -6 18 -6
20 0 7 -26 5 -33 -3z m28 -13 c3 -5 -1 -10 -9 -10 -9 0 -16 5 -16 10 0 6 4 10
9 10 6 0 13 -4 16 -10z"/>
<path d="M10121 5451 c1 -35 2 -35 8 -7 9 42 29 44 34 4 l5 -33 -2 35 c-1 29
-5 35 -23 36 -20 1 -23 -3 -22 -35z"/>
<path d="M10185 5480 c3 -5 8 -10 11 -10 2 0 4 5 4 10 0 6 -5 10 -11 10 -5 0
-7 -4 -4 -10z"/>
<path d="M10221 5440 c0 -25 3 -38 7 -30 4 8 13 15 21 15 8 0 16 7 18 15 4 13
3 13 -6 0 -8 -11 -13 -12 -22 -3 -16 16 -3 47 17 39 8 -3 12 -2 9 3 -3 6 -14
9 -25 8 -17 -1 -20 -8 -19 -47z"/>
<path d="M10327 5483 c-16 -15 -5 -33 19 -33 20 0 25 4 20 16 -3 9 -6 18 -6
20 0 7 -26 5 -33 -3z m28 -13 c3 -5 -1 -10 -9 -10 -9 0 -16 5 -16 10 0 6 4 10
9 10 6 0 13 -4 16 -10z"/>
<path d="M10386 5481 c-3 -5 3 -7 14 -4 11 3 20 1 20 -5 0 -5 -9 -12 -21 -15
-22 -6 -22 -29 -1 -33 7 -1 8 0 2 3 -15 7 -12 23 4 23 8 0 17 -8 20 -17 2 -10
4 -2 3 17 -2 34 -27 54 -41 31z"/>
<path d="M10454 5476 c-8 -22 -1 -49 14 -52 7 -1 8 0 2 3 -14 7 -13 50 3 56 9
4 9 6 -1 6 -7 1 -15 -5 -18 -13z"/>
<path d="M10524 5476 c-9 -23 0 -51 17 -54 19 -4 32 23 24 49 -7 22 -33 25
-41 5z m31 -21 c0 -10 -6 -20 -12 -22 -8 -3 -13 5 -13 22 0 17 5 25 13 23 6
-3 12 -13 12 -23z"/>
<path d="M10651 5453 c2 -35 2 -35 6 -8 3 16 10 33 16 37 8 5 6 8 -5 8 -14 0
-18 -8 -17 -37z"/>
<path d="M10697 5484 c-4 -4 -7 -18 -7 -31 0 -26 26 -41 42 -25 8 8 5 9 -11 5
-12 -3 -21 -1 -21 6 0 6 9 11 21 11 14 0 19 5 17 17 -3 19 -29 29 -41 17z m33
-14 c0 -5 -7 -10 -15 -10 -8 0 -15 5 -15 10 0 6 7 10 15 10 8 0 15 -4 15 -10z"/>
<path d="M10764 5476 c-9 -23 0 -51 16 -52 9 0 10 1 3 3 -20 7 -16 51 5 56 16
4 16 5 -1 6 -10 0 -20 -5 -23 -13z"/>
<path d="M10827 5483 c-16 -15 -5 -33 19 -33 20 0 25 4 20 16 -3 9 -6 18 -6
20 0 7 -26 5 -33 -3z m28 -13 c3 -5 -1 -10 -9 -10 -9 0 -16 5 -16 10 0 6 4 10
9 10 6 0 13 -4 16 -10z"/>
<path d="M10896 5482 c-2 -4 4 -8 14 -8 10 0 16 4 14 8 -3 4 -9 8 -14 8 -5 0
-11 -4 -14 -8z"/>
<path d="M10996 5482 c-2 -4 4 -8 14 -8 10 0 16 4 14 8 -3 4 -9 8 -14 8 -5 0
-11 -4 -14 -8z"/>
<path d="M11051 5453 c2 -35 2 -35 6 -8 3 16 10 33 16 37 8 5 6 8 -5 8 -14 0
-18 -8 -17 -37z"/>
<path d="M10067 5428 c2 -5 10 -8 18 -8 8 0 16 3 18 8 3 4 -5 7 -18 7 -13 0
-21 -3 -18 -7z"/>
<path d="M10327 5428 c2 -5 10 -8 18 -8 8 0 16 3 18 8 3 4 -5 7 -18 7 -13 0
-21 -3 -18 -7z"/>
<path d="M10827 5428 c2 -5 10 -8 18 -8 8 0 16 3 18 8 3 4 -5 7 -18 7 -13 0
-21 -3 -18 -7z"/>
<path d="M10890 5428 c0 -4 6 -8 14 -8 8 0 17 4 20 8 2 4 -4 8 -15 8 -10 0
-19 -4 -19 -8z"/>
<path d="M11000 5426 c7 -7 13 -7 20 0 6 6 3 10 -10 10 -13 0 -16 -4 -10 -10z"/>
<path d="M9998 5403 c12 -2 30 -2 40 0 9 3 -1 5 -23 4 -22 0 -30 -2 -17 -4z"/>
<path d="M10593 5403 c9 -2 25 -2 35 0 9 3 1 5 -18 5 -19 0 -27 -2 -17 -5z"/>
<path d="M9890 5163 c0 -25 2 -44 4 -42 8 10 13 89 5 89 -5 0 -9 -21 -9 -47z"/>
<path d="M9957 5168 c8 -59 13 -61 13 -5 0 26 -4 47 -9 47 -5 0 -7 -19 -4 -42z"/>
<path d="M9997 5184 c-4 -4 -7 -18 -7 -31 0 -26 26 -41 42 -25 8 8 5 9 -11 5
-12 -3 -21 -1 -21 6 0 6 9 11 21 11 14 0 19 5 17 17 -3 19 -29 29 -41 17z m33
-14 c0 -5 -7 -10 -15 -10 -8 0 -15 5 -15 10 0 6 7 10 15 10 8 0 15 -4 15 -10z"/>
<path d="M10062 5153 l1 -38 4 33 c3 24 8 32 19 28 8 -3 14 -1 14 4 0 6 -9 10
-20 10 -17 0 -20 -6 -18 -37z"/>
<path d="M10125 5180 c-9 -15 4 -30 23 -29 15 1 15 2 0 6 -10 2 -18 8 -18 13
0 5 8 11 18 13 15 4 15 5 0 6 -9 0 -20 -3 -23 -9z"/>
<path d="M10186 5181 c-3 -5 3 -7 14 -4 11 3 20 1 20 -5 0 -5 -9 -12 -21 -15
-22 -6 -22 -29 -1 -33 7 -1 8 0 2 3 -15 7 -12 23 4 23 8 0 17 -8 20 -17 2 -10
4 -2 3 17 -2 34 -27 54 -41 31z"/>
<path d="M10250 5148 c-3 -26 -1 -43 3 -39 5 5 7 26 5 47 l-3 39 -5 -47z"/>
<path d="M10287 5183 c-16 -15 -5 -33 19 -33 20 0 25 4 20 16 -3 9 -6 18 -6
20 0 7 -26 5 -33 -3z m28 -13 c3 -5 -1 -10 -9 -10 -9 0 -16 5 -16 10 0 6 4 10
9 10 6 0 13 -4 16 -10z"/>
<path d="M9920 5134 c0 -8 5 -12 10 -9 6 3 10 10 10 16 0 5 -4 9 -10 9 -5 0
-10 -7 -10 -16z"/>
<path d="M10128 5128 c5 -5 16 -8 23 -6 8 3 3 7 -10 11 -17 4 -21 3 -13 -5z"/>
<path d="M10287 5128 c2 -5 10 -8 18 -8 8 0 16 3 18 8 3 4 -5 7 -18 7 -13 0
-21 -3 -18 -7z"/>
<path d="M9891 4863 c1 -27 4 -38 6 -26 2 13 13 24 26 26 l22 4 -22 2 c-33 2
-29 29 5 34 25 4 25 4 -5 6 -33 1 -33 1 -32 -46z"/>
<path d="M10093 4865 c0 -27 2 -38 4 -22 2 15 2 37 0 50 -2 12 -4 0 -4 -28z"/>
<path d="M9983 4884 c24 -8 22 -28 -3 -21 -12 3 -20 0 -20 -8 0 -8 9 -11 25
-7 31 5 30 36 0 39 -16 1 -16 1 -2 -3z"/>
<path d="M10037 4883 c-4 -3 -7 -17 -7 -30 0 -26 26 -41 42 -25 8 8 5 9 -11 5
-17 -4 -21 -1 -21 20 0 16 7 27 18 30 14 4 14 5 1 6 -9 0 -19 -2 -22 -6z"/>
<path d="M10117 4883 c6 -4 13 -22 16 -38 4 -27 5 -27 3 4 0 21 -7 36 -16 38
-10 3 -11 2 -3 -4z"/>
<path d="M10166 4881 c-4 -5 3 -7 14 -4 23 6 26 13 6 13 -8 0 -17 -4 -20 -9z"/>
<path d="M10160 4840 c0 -15 6 -19 24 -18 14 1 22 6 20 10 -3 4 -11 5 -19 1
-8 -3 -15 0 -15 5 0 6 8 13 18 15 13 4 11 5 -5 6 -17 1 -23 -5 -23 -19z"/>
<path d="M9985 4830 c-16 -7 -17 -9 -3 -9 9 -1 20 4 23 9 7 11 7 11 -20 0z"/>
<path d="M1839 6393 c-8 -10 -9 -14 -2 -10 8 5 13 -5 16 -30 3 -35 4 -34 5 10
2 52 1 55 -19 30z"/>
<path d="M2582 6363 c1 -38 2 -41 5 -15 4 29 6 32 20 20 15 -12 15 -11 5 9
-22 41 -32 36 -30 -14z"/>
<path d="M2789 6393 c-8 -10 -9 -14 -2 -10 8 5 13 -5 16 -30 3 -35 4 -34 5 10
2 52 1 55 -19 30z"/>
<path d="M2626 6335 c4 -8 8 -15 10 -15 2 0 4 7 4 15 0 8 -4 15 -10 15 -5 0
-7 -7 -4 -15z"/>
<path d="M6272 6165 c1 -45 1 -47 7 -15 l6 35 22 -35 c13 -19 23 -29 23 -23 0
7 -7 21 -15 30 -8 10 -21 27 -29 38 -14 19 -15 16 -14 -30z"/>
<path d="M8472 6165 c1 -45 1 -47 7 -15 l6 35 22 -35 c13 -19 23 -29 23 -23 0
7 -7 21 -15 30 -8 10 -21 27 -29 38 -14 19 -15 16 -14 -30z"/>
<path d="M11572 6165 c1 -45 1 -47 7 -15 l6 35 22 -35 c13 -19 23 -29 23 -23
0 7 -7 21 -15 30 -8 10 -21 27 -29 38 -14 19 -15 16 -14 -30z"/>
<path d="M4910 6175 c0 -8 4 -15 10 -15 5 0 7 7 4 15 -4 8 -8 15 -10 15 -2 0
-4 -7 -4 -15z"/>
<path d="M9272 6115 c1 -45 1 -47 7 -15 l6 35 22 -35 c13 -19 23 -29 23 -23 0
7 -7 21 -15 30 -8 10 -21 27 -29 38 -14 19 -15 16 -14 -30z"/>
<path d="M4946 6125 c4 -8 8 -15 10 -15 2 0 4 7 4 15 0 8 -4 15 -10 15 -5 0
-7 -7 -4 -15z"/>
<path d="M4900 5395 l0 -685 -1150 0 -1150 0 2 -742 3 -743 2 738 3 737 1150
0 1150 0 0 690 c0 380 -2 690 -5 690 -3 0 -5 -308 -5 -685z"/>
<path d="M2900 3385 l0 -224 -127 -4 -128 -3 128 -2 127 -2 0 -675 0 -675 905
0 905 0 0 675 0 674 68 4 67 3 -67 2 -68 2 0 225 0 225 -905 0 -905 0 0 -225z
m1800 70 l0 -145 -895 0 -895 0 0 145 0 145 895 0 895 0 0 -145z m-1400 -300
l0 -145 -195 0 -195 0 0 145 0 145 195 0 195 0 0 -145z m1400 0 l0 -145 -695
0 -695 0 0 145 0 145 695 0 695 0 0 -145z m-1400 -750 l0 -595 -195 0 -195 0
0 595 0 595 195 0 195 0 0 -595z m1400 0 l0 -595 -695 0 -695 0 0 595 0 595
695 0 695 0 0 -595z"/>
<path d="M3279 3489 c-8 -16 -8 -28 0 -45 10 -23 44 -33 55 -15 3 4 -5 6 -18
4 -17 -4 -26 0 -30 15 -10 31 4 54 30 49 13 -2 21 0 18 4 -10 17 -43 9 -55
-12z"/>
<path d="M3760 3501 c0 -5 -9 -11 -21 -14 -30 -8 -23 -61 9 -65 20 -3 22 1 22
42 0 25 -2 46 -5 46 -3 0 -5 -4 -5 -9z m0 -46 c0 -26 -14 -33 -25 -15 -9 14 1
40 15 40 5 0 10 -11 10 -25z"/>
<path d="M3912 3498 c-27 -27 -7 -78 29 -78 10 0 20 4 23 9 3 4 -5 6 -18 4
-17 -4 -26 0 -30 15 -10 31 4 54 30 49 13 -2 21 0 18 4 -8 13 -38 11 -52 -3z"/>
<path d="M3508 3495 c-2 -2 -2 -20 0 -40 3 -24 9 -35 21 -35 13 0 13 2 2 9 -8
6 -12 19 -9 35 5 24 -3 42 -14 31z"/>
<path d="M3372 3478 c-16 -16 -15 -33 4 -48 21 -18 49 9 39 39 -7 23 -25 27
-43 9z m35 -14 c8 -21 -13 -42 -28 -27 -13 13 -5 43 11 43 6 0 13 -7 17 -16z"/>
<path d="M3443 3455 c0 -22 2 -30 4 -17 2 12 2 30 0 40 -3 9 -5 -1 -4 -23z"/>
<path d="M3468 3455 c2 -19 8 -35 13 -35 10 0 12 31 3 54 -11 28 -20 17 -16
-19z"/>
<path d="M3551 3472 c-6 -11 -6 -24 0 -35 11 -18 39 -24 39 -7 0 5 -7 7 -15 4
-8 -4 -15 -1 -15 5 0 6 9 11 21 11 15 0 19 4 15 16 -3 9 -6 18 -6 20 0 12 -31
1 -39 -14z m34 -2 c3 -5 -1 -10 -9 -10 -9 0 -16 5 -16 10 0 6 4 10 9 10 6 0
13 -4 16 -10z"/>
<path d="M3623 3455 c0 -22 2 -30 4 -17 2 12 2 30 0 40 -3 9 -5 -1 -4 -23z"/>
<path d="M3648 3455 c2 -19 8 -35 13 -35 10 0 12 31 3 54 -11 28 -20 17 -16
-19z"/>
<path d="M3693 3455 c0 -22 2 -30 4 -17 2 12 2 30 0 40 -3 9 -5 -1 -4 -23z"/>
<path d="M3800 3475 c-17 -21 -2 -50 26 -50 14 0 19 7 19 30 0 34 -24 45 -45
20z m37 -11 c8 -22 -15 -44 -26 -25 -10 16 -4 41 10 41 5 0 12 -7 16 -16z"/>
<path d="M3994 3476 c-10 -26 0 -51 21 -51 16 0 20 7 20 30 0 33 -30 49 -41
21z m36 -21 c0 -16 -6 -25 -15 -25 -9 0 -15 9 -15 25 0 16 6 25 15 25 9 0 15
-9 15 -25z"/>
<path d="M4061 3453 c1 -36 2 -36 8 -9 9 43 31 45 32 4 l1 -33 7 29 c9 42 29
44 34 4 l5 -33 -2 35 c-1 34 -2 35 -43 38 l-43 3 1 -38z"/>
<path d="M4172 3445 c0 -27 2 -43 6 -35 4 8 14 15 22 15 19 0 21 57 2 61 -7 1
-8 0 -2 -3 5 -2 10 -16 10 -30 0 -34 -23 -24 -31 13 -5 22 -7 18 -7 -21z"/>
<path d="M4240 3455 c0 -19 5 -35 10 -35 6 0 10 13 10 29 0 16 6 32 13 34 6 3
2 6 -10 6 -20 1 -23 -4 -23 -34z"/>
<path d="M4295 3480 c-3 -5 0 -7 7 -5 9 4 14 -3 16 -20 1 -14 -3 -25 -8 -25
-6 0 -10 7 -10 16 0 8 -4 13 -10 9 -16 -10 1 -35 24 -35 19 0 21 4 18 35 -4
34 -23 47 -37 25z"/>
<path d="M3031 3163 c1 -26 3 -40 6 -31 2 9 14 18 26 20 16 2 22 10 22 28 0
20 -6 26 -27 28 -27 3 -28 2 -27 -45z m44 17 c0 -8 -8 -16 -17 -18 -13 -2 -18
3 -18 18 0 15 5 20 18 18 9 -2 17 -10 17 -18z"/>
<path d="M3112 3165 c-1 -40 1 -45 8 -27 12 27 27 28 35 2 3 -11 11 -20 17
-20 6 0 3 12 -7 26 -16 24 -16 27 1 45 9 10 13 19 7 19 -5 0 -18 -9 -29 -21
l-19 -21 -6 24 c-5 15 -7 7 -7 -27z"/>
<path d="M3460 3201 c0 -5 -9 -11 -21 -14 -30 -8 -23 -61 9 -65 20 -3 22 1 22
42 0 25 -2 46 -5 46 -3 0 -5 -4 -5 -9z m0 -46 c0 -26 -14 -33 -25 -15 -9 14 1
40 15 40 5 0 10 -11 10 -25z"/>
<path d="M4533 3165 c0 -27 2 -38 4 -22 2 15 2 37 0 50 -2 12 -4 0 -4 -28z"/>
<path d="M4278 3195 c-2 -2 -2 -20 0 -40 3 -24 9 -35 21 -35 13 0 13 2 2 9 -8
6 -12 19 -9 35 5 24 -3 42 -14 31z"/>
<path d="M3393 3155 c0 -22 2 -30 4 -17 2 12 2 30 0 40 -3 9 -5 -1 -4 -23z"/>
<path d="M3565 3171 c-11 -35 22 -71 39 -42 3 5 -2 8 -12 7 -11 -1 -17 6 -17
19 0 13 6 20 17 19 10 -1 15 2 12 7 -9 16 -32 10 -39 -10z"/>
<path d="M3637 3184 c-13 -13 -7 -55 9 -61 24 -9 51 23 38 45 -12 19 -36 27
-47 16z m33 -29 c0 -16 -6 -25 -15 -25 -9 0 -15 9 -15 25 0 16 6 25 15 25 9 0
15 -9 15 -25z"/>
<path d="M3701 3153 c1 -36 2 -36 8 -9 9 43 31 45 32 4 l1 -33 7 29 c9 42 29
44 34 4 l5 -33 -2 35 c-1 34 -2 35 -43 38 l-43 3 1 -38z"/>
<path d="M3811 3143 c1 -27 3 -40 6 -31 2 9 10 15 17 12 19 -7 39 22 31 46 -4
13 -15 20 -31 20 -22 0 -24 -4 -23 -47z m39 12 c0 -26 -14 -33 -25 -15 -9 14
1 40 15 40 5 0 10 -11 10 -25z"/>
<path d="M3880 3155 c0 -19 5 -35 10 -35 6 0 10 13 10 29 0 16 6 32 13 34 6 3
2 6 -10 6 -20 1 -23 -4 -23 -34z"/>
<path d="M3935 3181 c-3 -6 0 -9 7 -6 9 4 14 -3 16 -20 1 -14 -3 -25 -9 -25
-6 0 -9 7 -5 15 3 8 1 15 -4 15 -6 0 -10 -9 -10 -20 0 -15 7 -20 26 -20 23 0
25 3 22 32 -3 33 -29 50 -43 29z"/>
<path d="M4065 3171 c-11 -35 22 -71 39 -42 3 5 -2 8 -12 7 -11 -1 -17 6 -17
19 0 13 6 20 17 19 10 -1 15 2 12 7 -9 16 -32 10 -39 -10z"/>
<path d="M4137 3184 c-13 -13 -7 -55 9 -61 24 -9 51 23 38 45 -12 19 -36 27
-47 16z m33 -29 c0 -16 -6 -25 -15 -25 -9 0 -15 9 -15 25 0 16 6 25 15 25 9 0
15 -9 15 -25z"/>
<path d="M4200 3155 c0 -19 5 -35 10 -35 6 0 10 14 10 30 0 40 18 38 23 -2 4
-32 4 -32 5 5 2 33 0 37 -23 37 -22 0 -25 -4 -25 -35z"/>
<path d="M4321 3172 c-6 -11 -6 -24 0 -35 11 -18 39 -24 39 -7 0 5 -7 7 -15 4
-8 -4 -15 -1 -15 5 0 6 9 11 21 11 15 0 19 4 15 16 -3 9 -6 18 -6 20 0 12 -31
1 -39 -14z m34 -2 c3 -5 -1 -10 -9 -10 -9 0 -16 5 -16 10 0 6 4 10 9 10 6 0
13 -4 16 -10z"/>
<path d="M4380 3155 c0 -19 5 -35 10 -35 6 0 10 14 10 30 0 40 18 38 23 -2 4
-32 4 -32 5 5 2 33 0 37 -23 37 -22 0 -25 -4 -25 -35z"/>
<path d="M4463 3155 c0 -22 2 -30 4 -17 2 12 2 30 0 40 -3 9 -5 -1 -4 -23z"/>
<path d="M4494 3176 c-8 -22 -1 -49 14 -52 7 -1 8 0 2 3 -14 7 -13 50 3 56 9
4 9 6 -1 6 -7 1 -15 -5 -18 -13z"/>
<path d="M4572 3178 c-16 -16 -15 -33 4 -48 21 -18 49 9 39 39 -7 23 -25 27
-43 9z m35 -14 c8 -21 -13 -42 -28 -27 -13 13 -5 43 11 43 6 0 13 -7 17 -16z"/>
<path d="M3483 3103 c59 -2 155 -2 215 0 59 1 10 3 -108 3 -118 0 -167 -2
-107 -3z"/>
<path d="M4032 3103 c108 -2 288 -2 400 0 112 1 23 2 -197 2 -220 0 -311 -1
-203 -2z"/>
<path d="M2931 2863 c1 -26 3 -40 6 -31 2 9 14 18 26 20 16 2 22 10 22 28 0
20 -6 26 -27 28 -27 3 -28 2 -27 -45z m49 17 c0 -13 -7 -20 -20 -20 -13 0 -20
7 -20 20 0 13 7 20 20 20 13 0 20 -7 20 -20z"/>
<path d="M3012 2865 c-1 -39 1 -45 8 -27 12 27 27 28 35 2 3 -11 11 -20 16
-20 5 0 3 13 -5 28 -13 26 -13 31 2 45 9 10 11 17 5 17 -6 0 -16 -7 -23 -15
-16 -20 -27 -19 -33 3 -3 9 -5 -5 -5 -33z"/>
<path d="M3131 2863 c1 -27 4 -38 6 -26 2 13 13 24 26 26 l22 4 -22 2 c-13 0
-23 7 -23 15 0 8 10 17 23 19 19 4 18 4 -5 6 -27 1 -28 -1 -27 -46z"/>
<path d="M3212 2865 c1 -27 3 -40 5 -27 5 28 19 28 33 1 7 -11 14 -18 17 -15
3 3 -1 16 -10 29 -14 22 -14 26 1 41 10 10 12 16 4 16 -6 0 -17 -10 -24 -22
l-12 -23 -7 25 c-5 18 -7 11 -7 -25z"/>
<path d="M2931 2563 c1 -26 3 -40 6 -31 2 9 14 18 26 20 16 2 22 10 22 28 0
20 -6 26 -27 28 -27 3 -28 2 -27 -45z m49 17 c0 -13 -7 -20 -20 -20 -13 0 -20
7 -20 20 0 13 7 20 20 20 13 0 20 -7 20 -20z"/>
<path d="M3012 2565 c-1 -39 1 -45 8 -27 12 27 27 28 35 2 3 -11 11 -20 16
-20 5 0 3 13 -5 28 -13 26 -13 31 2 45 9 10 11 17 5 17 -6 0 -16 -7 -23 -15
-16 -20 -27 -19 -33 3 -3 9 -5 -5 -5 -33z"/>
<path d="M3131 2563 c1 -27 4 -38 6 -26 2 13 13 24 26 26 l22 4 -22 2 c-13 0
-23 7 -23 15 0 8 10 17 23 19 19 4 18 4 -5 6 -27 1 -28 -1 -27 -46z"/>
<path d="M3212 2565 c1 -27 3 -40 5 -27 5 28 19 28 33 1 7 -11 14 -18 17 -15
3 3 -1 16 -10 29 -14 22 -14 26 1 41 10 10 12 16 4 16 -6 0 -17 -10 -24 -22
l-12 -23 -7 25 c-5 18 -7 11 -7 -25z"/>
<path d="M3460 2901 c0 -5 -9 -11 -21 -14 -30 -8 -23 -61 9 -65 20 -3 22 1 22
42 0 25 -2 46 -5 46 -3 0 -5 -4 -5 -9z m0 -46 c0 -26 -14 -33 -25 -15 -9 14 1
40 15 40 5 0 10 -11 10 -25z"/>
<path d="M4068 2898 c-2 -7 -1 -29 3 -48 l6 -35 3 35 c1 19 2 38 1 43 0 4 4 7
9 7 6 0 10 -18 10 -40 0 -38 20 -60 20 -22 1 15 2 15 15 -2 8 -11 15 -15 15
-10 0 6 -7 19 -15 30 -8 10 -15 27 -15 37 0 20 -45 24 -52 5z"/>
<path d="M3393 2855 c0 -22 2 -30 4 -17 2 12 2 30 0 40 -3 9 -5 -1 -4 -23z"/>
<path d="M3565 2871 c-11 -35 22 -71 39 -42 3 5 -2 8 -12 7 -11 -1 -17 6 -17
19 0 13 6 20 17 19 10 -1 15 2 12 7 -9 16 -32 10 -39 -10z"/>
<path d="M3637 2884 c-13 -13 -7 -55 9 -61 24 -9 51 23 38 45 -12 19 -36 27
-47 16z m33 -29 c0 -16 -6 -25 -15 -25 -9 0 -15 9 -15 25 0 16 6 25 15 25 9 0
15 -9 15 -25z"/>
<path d="M3701 2853 c1 -36 2 -36 8 -9 9 43 31 45 32 4 l1 -33 7 29 c9 42 29
44 34 4 l5 -33 -2 35 c-1 34 -2 35 -43 38 l-43 3 1 -38z"/>
<path d="M3811 2843 c1 -27 3 -40 6 -31 2 9 10 15 17 12 19 -7 39 22 31 46 -4
13 -15 20 -31 20 -22 0 -24 -4 -23 -47z m39 12 c0 -26 -14 -33 -25 -15 -9 14
1 40 15 40 5 0 10 -11 10 -25z"/>
<path d="M3880 2855 c0 -19 5 -35 10 -35 6 0 10 13 10 29 0 16 6 32 13 34 6 3
2 6 -10 6 -20 1 -23 -4 -23 -34z"/>
<path d="M3935 2881 c-3 -6 0 -9 7 -6 9 4 14 -3 16 -20 1 -14 -3 -25 -9 -25
-6 0 -9 7 -5 15 3 8 1 15 -4 15 -6 0 -10 -9 -10 -20 0 -15 7 -20 26 -20 23 0
25 3 22 32 -3 33 -29 50 -43 29z"/>
<path d="M3503 2803 c9 -2 25 -2 35 0 9 3 1 5 -18 5 -19 0 -27 -2 -17 -5z"/>
<path d="M4003 2803 c9 -2 25 -2 35 0 9 3 1 5 -18 5 -19 0 -27 -2 -17 -5z"/>
<path d="M3460 2601 c0 -5 -9 -11 -21 -14 -30 -8 -23 -61 9 -65 20 -3 22 1 22
42 0 25 -2 46 -5 46 -3 0 -5 -4 -5 -9z m0 -46 c0 -26 -14 -33 -25 -15 -9 14 1
40 15 40 5 0 10 -11 10 -25z"/>
<path d="M3800 2601 c0 -5 -9 -11 -21 -14 -30 -8 -23 -61 9 -65 20 -3 22 1 22
42 0 25 -2 46 -5 46 -3 0 -5 -4 -5 -9z m-5 -46 c0 -10 -6 -20 -12 -22 -8 -3
-13 5 -13 22 0 17 5 25 13 23 6 -3 12 -13 12 -23z"/>
<path d="M4154 2600 c-12 -12 -6 -80 7 -80 5 0 9 12 10 28 0 15 2 35 4 45 4
19 -6 22 -21 7z"/>
<path d="M4193 2565 c-1 -27 1 -42 4 -32 6 22 19 22 27 1 4 -9 9 -14 12 -11 3
3 1 14 -5 25 -7 13 -7 22 1 30 9 9 9 12 0 12 -7 0 -12 -4 -12 -10 0 -20 -19
-10 -23 13 -2 12 -4 0 -4 -28z"/>
<path d="M3967 2594 c-9 -9 9 -68 21 -70 7 -1 8 0 2 3 -14 7 -13 50 2 55 8 3
6 6 -4 10 -9 4 -18 5 -21 2z"/>
<path d="M3393 2555 c0 -22 2 -30 4 -17 2 12 2 30 0 40 -3 9 -5 -1 -4 -23z"/>
<path d="M3560 2551 c0 -39 -1 -40 -37 -44 -35 -3 -34 -4 10 -5 26 -1 47 2 47
7 0 5 9 11 21 14 16 4 20 12 17 34 -2 22 -9 29 -30 31 -26 3 -28 1 -28 -37z
m45 4 c0 -10 -6 -20 -12 -22 -8 -3 -13 5 -13 22 0 17 5 25 13 23 6 -3 12 -13
12 -23z"/>
<path d="M3643 2555 c0 -22 2 -30 4 -17 2 12 2 30 0 40 -3 9 -5 -1 -4 -23z"/>
<path d="M3692 2578 c-16 -16 -15 -33 4 -48 21 -18 49 9 39 39 -7 23 -25 27
-43 9z m35 -14 c8 -21 -13 -42 -28 -27 -13 13 -5 43 11 43 6 0 13 -7 17 -16z"/>
<path d="M3834 2561 c0 -21 7 -36 16 -38 10 -3 11 -2 3 4 -6 4 -13 22 -16 38
-4 27 -5 27 -3 -4z"/>
<path d="M3873 2555 c0 -22 2 -30 4 -17 2 12 2 30 0 40 -3 9 -5 -1 -4 -23z"/>
<path d="M3905 2571 c-11 -35 22 -71 39 -42 3 5 -2 8 -12 7 -11 -1 -17 6 -17
19 0 13 6 20 17 19 10 -1 15 2 12 7 -9 16 -32 10 -39 -10z"/>
<path d="M4017 2584 c-13 -13 -7 -55 9 -61 24 -9 51 23 38 45 -12 19 -36 27
-47 16z m33 -29 c0 -16 -6 -25 -15 -25 -9 0 -15 9 -15 25 0 16 6 25 15 25 9 0
15 -9 15 -25z"/>
<path d="M4088 2503 c12 -2 30 -2 40 0 9 3 -1 5 -23 4 -22 0 -30 -2 -17 -4z"/>
<path d="M3400 2296 c-15 -20 -9 -56 12 -70 14 -8 21 -6 35 9 16 17 17 18 1 6
-25 -18 -48 -7 -48 24 0 31 24 42 48 24 15 -13 16 -12 3 4 -16 21 -35 22 -51
3z"/>
<path d="M3608 2300 c-5 -17 3 -80 11 -80 7 0 6 79 -2 86 -3 3 -7 0 -9 -6z"/>
<path d="M3713 2265 c0 -27 2 -38 4 -22 2 15 2 37 0 50 -2 12 -4 0 -4 -28z"/>
<path d="M3840 2300 c0 -5 -6 -10 -14 -10 -18 0 -29 -31 -20 -54 3 -9 15 -16
25 -16 16 0 19 8 19 45 0 25 -2 45 -5 45 -3 0 -5 -4 -5 -10z m0 -45 c0 -26
-14 -33 -25 -15 -9 14 1 40 15 40 5 0 10 -11 10 -25z"/>
<path d="M3486 2281 c-4 -5 3 -7 14 -4 23 6 26 13 6 13 -8 0 -17 -4 -20 -9z"/>
<path d="M3541 2251 c1 -35 2 -35 8 -7 9 42 29 44 34 4 l5 -33 -2 35 c-1 29
-5 35 -23 36 -20 1 -23 -3 -22 -35z"/>
<path d="M3643 2255 c0 -22 2 -30 4 -17 2 12 2 30 0 40 -3 9 -5 -1 -4 -23z"/>
<path d="M3674 2276 c-8 -22 -1 -49 14 -52 7 -1 8 0 2 3 -14 7 -13 50 3 56 9
4 9 6 -1 6 -7 1 -15 -5 -18 -13z"/>
<path d="M3746 2281 c-4 -5 3 -7 14 -4 23 6 26 13 6 13 -8 0 -17 -4 -20 -9z"/>
<path d="M3480 2240 c0 -15 6 -19 24 -18 14 1 22 6 20 10 -3 4 -11 5 -19 1 -8
-3 -15 0 -15 5 0 6 8 13 18 15 13 4 11 5 -5 6 -17 1 -23 -5 -23 -19z"/>
<path d="M3740 2240 c0 -15 6 -19 24 -18 14 1 22 6 20 10 -3 4 -11 5 -19 1 -8
-3 -15 0 -15 5 0 6 8 13 18 15 13 4 11 5 -5 6 -17 1 -23 -5 -23 -19z"/>
<path d="M3390 1965 c0 -44 0 -45 33 -44 30 2 30 2 5 6 -16 2 -28 10 -28 18 0
8 12 16 28 18 l27 4 -27 2 c-17 0 -28 7 -28 15 0 8 12 17 28 19 25 4 25 4 -5
6 -33 1 -33 0 -33 -44z"/>
<path d="M3528 2000 c-5 -17 3 -80 11 -80 7 0 6 79 -2 86 -3 3 -7 0 -9 -6z"/>
<path d="M3673 1965 c0 -27 2 -38 4 -22 2 15 2 37 0 50 -2 12 -4 0 -4 -28z"/>
<path d="M3474 1978 c-4 -6 0 -16 9 -23 22 -16 21 -22 0 -28 -16 -4 -16 -5 -1
-6 24 -2 34 20 15 34 -21 15 -22 29 -1 21 8 -3 12 -2 9 4 -8 13 -22 13 -31 -2z"/>
<path d="M3566 1981 c-3 -5 3 -7 14 -4 11 3 20 1 20 -5 0 -5 -9 -12 -21 -15
-22 -6 -22 -29 -1 -33 7 -1 8 0 2 3 -15 7 -12 23 4 23 8 0 17 -8 20 -17 2 -10
4 -2 3 17 -2 34 -27 54 -41 31z"/>
<path d="M3634 1976 c-8 -22 -1 -49 14 -52 7 -1 8 0 2 3 -14 7 -13 50 3 56 9
4 9 6 -1 6 -7 1 -15 -5 -18 -13z"/>
<path d="M3704 1976 c-9 -23 0 -51 17 -54 19 -4 32 23 24 49 -7 22 -33 25 -41
5z m31 -21 c0 -10 -6 -20 -12 -22 -8 -3 -13 5 -13 22 0 17 5 25 13 23 6 -3 12
-13 12 -23z"/>
<path d="M6800 3385 l0 -224 -102 -4 -103 -3 103 -2 102 -2 0 -425 0 -425 905
0 905 0 0 425 0 425 95 0 94 0 4 -87 3 -88 2 93 2 92 -100 0 -100 0 0 225 0
225 -905 0 -905 0 0 -225z m1800 70 l0 -145 -895 0 -895 0 0 145 0 145 895 0
895 0 0 -145z m-1500 -300 l0 -145 -145 0 -145 0 0 145 0 145 145 0 145 0 0
-145z m1500 0 l0 -145 -745 0 -745 0 0 145 0 145 745 0 745 0 0 -145z m-1500
-500 l0 -345 -145 0 -145 0 0 345 0 345 145 0 145 0 0 -345z m1500 0 l0 -345
-745 0 -745 0 0 345 0 345 745 0 745 0 0 -345z"/>
<path d="M7461 3463 c1 -27 3 -40 6 -30 2 9 10 17 18 17 19 0 36 25 29 44 -3
9 -17 16 -30 16 -22 0 -24 -4 -23 -47z m39 17 c0 -11 -7 -20 -15 -20 -8 0 -15
9 -15 20 0 11 7 20 15 20 8 0 15 -9 15 -20z"/>
<path d="M7690 3501 c0 -5 -9 -11 -21 -14 -30 -8 -23 -61 9 -65 20 -3 22 1 22
42 0 25 -2 46 -5 46 -3 0 -5 -4 -5 -9z m0 -46 c0 -26 -14 -33 -25 -15 -9 14 1
40 15 40 5 0 10 -11 10 -25z"/>
<path d="M7869 3495 c-7 -6 2 -75 10 -75 3 0 6 16 5 35 -1 35 -6 49 -15 40z"/>
<path d="M7530 3455 c0 -19 5 -35 10 -35 6 0 10 13 10 29 0 16 6 32 13 34 6 3
2 6 -10 6 -20 1 -23 -4 -23 -34z"/>
<path d="M7584 3476 c-10 -26 0 -51 21 -51 16 0 20 7 20 30 0 33 -30 49 -41
21z m36 -21 c0 -16 -6 -25 -15 -25 -9 0 -15 9 -15 25 0 16 6 25 15 25 9 0 15
-9 15 -25z"/>
<path d="M7732 3458 c-2 -34 0 -38 23 -38 22 0 25 4 25 35 0 19 -4 35 -10 35
-5 0 -10 -13 -10 -30 0 -40 -18 -38 -23 3 -4 31 -4 31 -5 -5z"/>
<path d="M7807 3483 c-4 -3 -7 -17 -7 -30 0 -26 26 -41 42 -25 8 8 5 9 -11 5
-18 -4 -21 -1 -21 22 0 22 3 25 21 20 15 -5 19 -4 15 4 -8 12 -29 15 -39 4z"/>
<path d="M7910 3475 c-17 -21 -2 -50 26 -50 14 0 19 7 19 30 0 34 -24 45 -45
20z m37 -11 c8 -22 -15 -44 -26 -25 -10 16 -4 41 10 41 5 0 12 -7 16 -16z"/>
<path d="M6881 3163 c1 -26 3 -40 6 -31 2 9 14 18 26 20 16 2 22 10 22 28 0
20 -6 26 -27 28 -27 3 -28 2 -27 -45z m44 17 c0 -8 -8 -16 -17 -18 -13 -2 -18
3 -18 18 0 15 5 20 18 18 9 -2 17 -10 17 -18z"/>
<path d="M6962 3165 c-1 -40 1 -45 8 -27 12 27 27 28 35 2 3 -11 11 -20 17
-20 6 0 3 12 -7 26 -16 24 -16 27 1 45 9 10 13 19 7 19 -5 0 -18 -9 -29 -21
l-19 -21 -6 24 c-5 15 -7 7 -7 -27z"/>
<path d="M7260 3201 c0 -5 -9 -11 -21 -14 -30 -8 -23 -61 9 -65 20 -3 22 1 22
42 0 25 -2 46 -5 46 -3 0 -5 -4 -5 -9z m0 -46 c0 -26 -14 -33 -25 -15 -9 14 1
40 15 40 5 0 10 -11 10 -25z"/>
<path d="M7600 3201 c0 -5 -9 -11 -21 -14 -30 -8 -23 -61 9 -65 20 -3 22 1 22
42 0 25 -2 46 -5 46 -3 0 -5 -4 -5 -9z m-5 -46 c0 -10 -6 -20 -12 -22 -8 -3
-13 5 -13 22 0 17 5 25 13 23 6 -3 12 -13 12 -23z"/>
<path d="M7767 3194 c-9 -9 9 -68 21 -70 7 -1 8 0 2 3 -14 7 -13 50 2 55 8 3
6 6 -4 10 -9 4 -18 5 -21 2z"/>
<path d="M7193 3155 c0 -22 2 -30 4 -17 2 12 2 30 0 40 -3 9 -5 -1 -4 -23z"/>
<path d="M7360 3151 l0 -40 -92 -4 -93 -3 103 -2 c56 -1 102 2 102 7 0 5 9 11
21 14 16 4 20 12 17 34 -2 22 -9 29 -30 31 -26 3 -28 1 -28 -37z m45 4 c0 -10
-6 -20 -12 -22 -8 -3 -13 5 -13 22 0 17 5 25 13 23 6 -3 12 -13 12 -23z"/>
<path d="M7443 3155 c0 -22 2 -30 4 -17 2 12 2 30 0 40 -3 9 -5 -1 -4 -23z"/>
<path d="M7492 3178 c-16 -16 -15 -33 4 -48 21 -18 49 9 39 39 -7 23 -25 27
-43 9z m35 -14 c8 -21 -13 -42 -28 -27 -13 13 -5 43 11 43 6 0 13 -7 17 -16z"/>
<path d="M7634 3161 c0 -21 7 -36 16 -38 10 -3 11 -2 3 4 -6 4 -13 22 -16 38
-4 27 -5 27 -3 -4z"/>
<path d="M7673 3155 c0 -22 2 -30 4 -17 2 12 2 30 0 40 -3 9 -5 -1 -4 -23z"/>
<path d="M7705 3171 c-11 -35 22 -71 39 -42 3 5 -2 8 -12 7 -11 -1 -17 6 -17
19 0 13 6 20 17 19 10 -1 15 2 12 7 -9 16 -32 10 -39 -10z"/>
<path d="M7817 3184 c-13 -13 -7 -55 9 -61 24 -9 51 23 38 45 -12 19 -36 27
-47 16z m33 -29 c0 -16 -6 -25 -15 -25 -9 0 -15 9 -15 25 0 16 6 25 15 25 9 0
15 -9 15 -25z"/>
<path d="M7508 3103 c67 -2 177 -2 245 0 67 1 12 3 -123 3 -135 0 -190 -2
-122 -3z"/>
<path d="M6903 2503 c9 -2 23 -2 30 0 6 3 -1 5 -18 5 -16 0 -22 -2 -12 -5z"/>
<path d="M6963 2465 c0 -27 2 -40 4 -27 5 27 19 28 35 2 7 -11 17 -20 22 -20
5 0 -1 11 -14 25 -23 25 -23 25 -4 47 18 22 18 22 -8 0 l-26 -24 -5 24 c-2 12
-4 1 -4 -27z"/>
<path d="M6898 2463 c6 -2 18 -2 25 0 6 3 1 5 -13 5 -14 0 -19 -2 -12 -5z"/>
<path d="M7421 2819 c-1 -41 1 -46 21 -45 12 0 23 8 25 16 4 13 3 13 -6 0 -8
-11 -13 -12 -22 -3 -16 16 -3 47 17 39 9 -3 12 -2 9 5 -4 6 -13 8 -20 5 -8 -3
-16 3 -18 12 -3 9 -5 -4 -6 -29z"/>
<path d="M7192 2803 c1 -37 1 -37 5 -5 3 18 10 32 18 32 8 0 16 -14 18 -32 l5
-33 -2 35 c-1 28 -5 36 -23 38 -21 3 -23 -1 -21 -35z"/>
<path d="M7264 2826 c-9 -23 0 -51 17 -54 19 -4 32 23 24 49 -7 22 -33 25 -41
5z m31 -21 c0 -10 -6 -20 -12 -22 -8 -3 -13 5 -13 22 0 17 5 25 13 23 6 -3 12
-13 12 -23z"/>
<path d="M7321 2801 c1 -35 2 -35 8 -7 9 42 29 44 34 4 l5 -33 -2 35 c-1 29
-5 35 -23 36 -20 1 -23 -3 -22 -35z"/>
<path d="M7385 2830 c3 -5 8 -10 11 -10 2 0 4 5 4 10 0 6 -5 10 -11 10 -5 0
-7 -4 -4 -10z"/>
<path d="M7491 2803 c2 -35 2 -35 6 -8 3 16 10 33 16 37 8 5 6 8 -5 8 -14 0
-18 -8 -17 -37z"/>
<path d="M7537 2834 c-4 -4 -7 -18 -7 -31 0 -26 26 -41 42 -25 8 8 5 9 -11 5
-12 -3 -21 -1 -21 6 0 6 9 11 21 11 14 0 19 5 17 17 -3 19 -29 29 -41 17z m33
-14 c0 -5 -7 -10 -15 -10 -8 0 -15 5 -15 10 0 6 7 10 15 10 8 0 15 -4 15 -10z"/>
<path d="M7260 2501 c0 -5 -9 -11 -21 -14 -30 -8 -23 -62 9 -63 20 -1 22 3 22
42 0 24 -2 44 -5 44 -3 0 -5 -4 -5 -9z m-5 -46 c0 -10 -6 -20 -12 -22 -8 -3
-13 5 -13 22 0 17 5 25 13 23 6 -3 12 -13 12 -23z"/>
<path d="M7478 2500 c-5 -17 3 -80 11 -80 7 0 6 79 -2 86 -3 3 -7 0 -9 -6z"/>
<path d="M7913 2498 c-5 -7 -6 -29 -2 -48 l6 -35 2 33 c0 17 1 35 0 39 0 4 8
10 18 14 15 6 15 8 2 8 -9 1 -21 -5 -26 -11z"/>
<path d="M7193 2455 c0 -22 2 -30 4 -17 2 12 2 30 0 40 -3 9 -5 -1 -4 -23z"/>
<path d="M7357 2483 c-4 -3 -7 -17 -7 -30 0 -26 26 -41 42 -25 8 8 5 9 -11 5
-17 -4 -21 -1 -21 20 0 16 7 27 18 30 14 4 14 5 1 6 -9 0 -19 -2 -22 -6z"/>
<path d="M7416 2481 c-3 -5 3 -7 14 -4 11 3 20 1 20 -5 0 -5 -9 -12 -20 -15
-30 -8 -26 -37 5 -35 22 2 26 7 23 33 -3 30 -30 47 -42 26z m29 -41 c-3 -5
-10 -10 -16 -10 -5 0 -9 5 -9 10 0 6 7 10 16 10 8 0 12 -4 9 -10z"/>
<path d="M7517 2484 c-4 -4 -7 -18 -7 -31 0 -26 26 -41 42 -25 8 8 5 9 -11 5
-12 -3 -21 -1 -21 6 0 6 9 11 21 11 14 0 19 5 17 17 -3 19 -29 29 -41 17z m33
-14 c0 -5 -7 -10 -15 -10 -8 0 -15 5 -15 10 0 6 7 10 15 10 8 0 15 -4 15 -10z"/>
<path d="M7586 2482 c-2 -4 4 -8 15 -8 10 0 19 4 19 8 0 4 -6 8 -14 8 -8 0
-17 -4 -20 -8z"/>
<path d="M7646 2472 c-4 -11 -4 -27 0 -36 8 -20 36 -17 41 4 4 12 3 13 -5 1
-11 -16 -32 -7 -32 14 0 21 21 30 32 14 8 -12 9 -11 5 1 -6 23 -34 24 -41 2z"/>
<path d="M7711 2453 c2 -35 2 -35 6 -8 3 16 10 33 16 37 8 5 6 8 -5 8 -14 0
-18 -8 -17 -37z"/>
<path d="M7753 2455 c0 -22 2 -30 4 -17 2 12 2 30 0 40 -3 9 -5 -1 -4 -23z"/>
<path d="M7786 2481 c-4 -5 3 -7 14 -4 23 6 26 13 6 13 -8 0 -17 -4 -20 -9z"/>
<path d="M7964 2468 l-19 -23 23 19 c21 18 27 26 19 26 -2 0 -12 -10 -23 -22z"/>
<path d="M7780 2440 c0 -15 6 -19 24 -18 14 1 22 6 20 10 -3 4 -11 5 -19 1 -8
-3 -15 0 -15 5 0 6 8 13 18 15 13 4 11 5 -5 6 -17 1 -23 -5 -23 -19z"/>
<path d="M7595 2424 c15 -11 15 -13 1 -17 -14 -4 -14 -5 0 -3 24 2 26 32 2 32
-17 0 -18 -1 -3 -12z"/>
<path d="M7288 2403 c12 -2 30 -2 40 0 9 3 -1 5 -23 4 -22 0 -30 -2 -17 -4z"/>
<path d="M7853 2403 c9 -2 25 -2 35 0 9 3 1 5 -18 5 -19 0 -27 -2 -17 -5z"/>
<path d="M2590 3195 c0 -8 4 -15 10 -15 5 0 7 7 4 15 -4 8 -8 15 -10 15 -2 0
-4 -7 -4 -15z"/>
<path d="M4850 3175 c0 -8 4 -15 10 -15 5 0 7 7 4 15 -4 8 -8 15 -10 15 -2 0
-4 -7 -4 -15z"/>
<path d="M6540 3165 c0 -8 4 -15 10 -15 5 0 7 7 4 15 -4 8 -8 15 -10 15 -2 0
-4 -7 -4 -15z"/>
<path d="M2626 3145 c4 -8 8 -15 10 -15 2 0 4 7 4 15 0 8 -4 15 -10 15 -5 0
-7 -7 -4 -15z"/>
<path d="M5313 3153 c224 -2 590 -2 815 0 224 1 40 2 -408 2 -448 0 -632 -1
-407 -2z"/>
<path d="M4886 3125 c4 -8 8 -15 10 -15 2 0 4 7 4 15 0 8 -4 15 -10 15 -5 0
-7 -7 -4 -15z"/>
<path d="M6576 3115 c4 -8 8 -15 10 -15 2 0 4 7 4 15 0 8 -4 15 -10 15 -5 0
-7 -7 -4 -15z"/>
<path d="M8718 2953 c-2 -5 -1 -24 3 -43 l6 -35 2 43 c1 39 -3 52 -11 35z"/>
<path d="M8860 2945 c0 -8 4 -15 10 -15 5 0 7 7 4 15 -4 8 -8 15 -10 15 -2 0
-4 -7 -4 -15z"/>
<path d="M8788 2903 c7 -3 16 -2 19 1 4 3 -2 6 -13 5 -11 0 -14 -3 -6 -6z"/>
<path d="M8896 2895 c4 -8 8 -15 10 -15 2 0 4 7 4 15 0 8 -4 15 -10 15 -5 0
-7 -7 -4 -15z"/>
<path d="M8800 1655 l0 -1195 -957 -3 -958 -2 963 -3 962 -2 0 1200 c0 660 -2
1200 -5 1200 -3 0 -5 -538 -5 -1195z"/>
<path d="M4600 455 l0 -455 905 0 905 0 0 225 0 224 118 4 117 3 -117 2 -118
2 0 225 0 225 -905 0 -905 0 0 -455z m1800 300 l0 -145 -895 0 -895 0 0 145 0
145 895 0 895 0 0 -145z m-1500 -300 l0 -145 -145 0 -145 0 0 145 0 145 145 0
145 0 0 -145z m1500 0 l0 -145 -745 0 -745 0 0 145 0 145 745 0 745 0 0 -145z
m-1500 -300 l0 -145 -145 0 -145 0 0 145 0 145 145 0 145 0 0 -145z m1500 0
l0 -145 -745 0 -745 0 0 145 0 145 745 0 745 0 0 -145z"/>
<path d="M5253 803 c-7 -2 -13 -20 -13 -38 0 -25 5 -35 21 -40 12 -4 25 -3 30
2 6 6 1 9 -13 9 -19 -1 -23 4 -23 29 0 24 4 30 22 29 12 0 20 3 17 8 -6 9 -22
9 -41 1z"/>
<path d="M5399 795 c-7 -6 2 -75 10 -75 3 0 6 16 5 35 -1 35 -6 49 -15 40z"/>
<path d="M5345 781 c19 -8 19 -8 -3 -15 -29 -10 -25 -40 6 -44 21 -3 23 0 20
30 -2 24 -8 33 -23 35 l-20 3 20 -9z m15 -30 c0 -12 -20 -25 -27 -18 -7 7 6
27 18 27 5 0 9 -4 9 -9z"/>
<path d="M5437 784 c-4 -4 -7 -18 -7 -31 0 -27 26 -41 43 -24 9 9 8 11 -4 6
-10 -4 -20 -2 -24 4 -3 7 3 11 15 11 15 0 20 5 18 17 -3 19 -29 29 -41 17z
m33 -14 c0 -5 -7 -10 -16 -10 -8 0 -12 5 -9 10 3 6 10 10 16 10 5 0 9 -4 9
-10z"/>
<path d="M5506 781 c-3 -4 -5 -25 -4 -45 1 -31 4 -37 22 -34 17 2 22 11 24 46
3 36 0 42 -17 42 -11 0 -22 -4 -25 -9z m29 -26 c0 -10 -6 -20 -12 -22 -8 -3
-13 5 -13 22 0 17 5 25 13 23 6 -3 12 -13 12 -23z m2 -41 c-3 -3 -12 -4 -19
-1 -8 3 -5 6 6 6 11 1 17 -2 13 -5z"/>
<path d="M5582 778 c-16 -16 -15 -33 4 -48 21 -18 49 9 39 39 -7 23 -25 27
-43 9z m35 -14 c8 -21 -13 -42 -28 -27 -13 13 -5 43 11 43 6 0 13 -7 17 -16z"/>
<path d="M5651 753 c2 -35 2 -35 6 -8 3 16 10 33 16 37 8 5 6 8 -5 8 -14 0
-18 -8 -17 -37z"/>
<path d="M5690 755 c0 -19 5 -35 10 -35 6 0 10 16 10 35 0 19 -4 35 -10 35 -5
0 -10 -16 -10 -35z"/>
<path d="M5745 781 c19 -8 19 -8 -3 -15 -29 -10 -25 -40 6 -44 21 -3 23 0 20
30 -2 24 -8 33 -23 35 l-20 3 20 -9z m15 -30 c0 -12 -20 -25 -27 -18 -7 7 6
27 18 27 5 0 9 -4 9 -9z"/>
<path d="M4681 463 c1 -26 3 -40 6 -31 2 9 14 18 26 20 16 2 22 10 22 28 0 20
-6 26 -27 28 -27 3 -28 2 -27 -45z m44 17 c0 -8 -8 -16 -17 -18 -13 -2 -18 3
-18 18 0 15 5 20 18 18 9 -2 17 -10 17 -18z"/>
<path d="M4762 465 c-1 -40 1 -45 8 -27 12 27 27 28 35 2 3 -11 11 -20 17 -20
6 0 3 12 -7 26 -16 24 -16 27 1 45 9 10 13 19 7 19 -5 0 -18 -9 -29 -21 l-19
-21 -6 24 c-5 15 -7 7 -7 -27z"/>
<path d="M5060 501 c0 -5 -9 -11 -21 -14 -30 -8 -23 -61 9 -65 20 -3 22 1 22
42 0 25 -2 46 -5 46 -3 0 -5 -4 -5 -9z m0 -46 c0 -26 -14 -33 -25 -15 -9 14 1
40 15 40 5 0 10 -11 10 -25z"/>
<path d="M5298 495 c-2 -2 -2 -20 0 -40 3 -24 9 -35 21 -35 13 0 13 2 2 9 -8
6 -12 19 -9 35 5 24 -3 42 -14 31z"/>
<path d="M4993 455 c0 -22 2 -30 4 -17 2 12 2 30 0 40 -3 9 -5 -1 -4 -23z"/>
<path d="M5165 471 c-11 -35 22 -71 39 -42 3 5 -2 8 -12 7 -11 -1 -17 6 -17
19 0 13 6 20 17 19 10 -1 15 2 12 7 -9 16 -32 10 -39 -10z"/>
<path d="M5235 481 c-3 -6 0 -9 7 -6 9 4 14 -3 16 -20 1 -14 -3 -25 -9 -25 -6
0 -9 7 -5 15 3 8 1 15 -4 15 -6 0 -10 -9 -10 -20 0 -15 7 -20 26 -20 23 0 25
3 22 32 -3 33 -29 50 -43 29z"/>
<path d="M5341 472 c-6 -11 -6 -24 0 -35 11 -18 39 -24 39 -7 0 5 -7 7 -15 4
-8 -4 -15 -1 -15 5 0 6 9 11 21 11 15 0 19 4 15 16 -3 9 -6 18 -6 20 0 12 -31
1 -39 -14z m34 -2 c3 -5 -1 -10 -9 -10 -9 0 -16 5 -16 10 0 6 4 10 9 10 6 0
13 -4 16 -10z"/>
<path d="M5404 476 c-11 -29 2 -71 24 -74 20 -3 22 1 22 42 0 40 -3 46 -20 46
-11 0 -23 -6 -26 -14z m36 -21 c0 -26 -14 -33 -25 -15 -9 14 1 40 15 40 5 0
10 -11 10 -25z"/>
<path d="M5484 476 c-10 -26 0 -51 21 -51 16 0 20 7 20 30 0 33 -30 49 -41 21z
m36 -21 c0 -16 -6 -25 -15 -25 -9 0 -15 9 -15 25 0 16 6 25 15 25 9 0 15 -9
15 -25z"/>
<path d="M5551 453 c1 -27 3 -31 6 -13 2 14 12 31 21 38 14 11 13 12 -6 12
-19 0 -22 -5 -21 -37z"/>
<path d="M5603 455 c0 -22 2 -30 4 -17 2 12 2 30 0 40 -3 9 -5 -1 -4 -23z"/>
<path d="M5635 481 c-3 -6 0 -9 7 -6 9 4 14 -3 16 -20 1 -14 -3 -25 -9 -25 -6
0 -9 7 -5 15 3 8 1 15 -4 15 -6 0 -10 -9 -10 -20 0 -15 7 -20 26 -20 23 0 25
3 22 32 -3 33 -29 50 -43 29z"/>
<path d="M5083 403 c59 -2 154 -2 210 0 56 1 8 3 -108 3 -115 0 -161 -2 -102
-3z"/>
<path d="M5518 403 c34 -2 88 -2 120 0 31 2 3 3 -63 3 -66 0 -92 -1 -57 -3z"/>
<path d="M5221 169 c-1 -41 1 -46 21 -45 12 0 23 8 25 16 4 13 3 13 -6 0 -8
-11 -13 -12 -22 -3 -16 16 -3 47 17 39 9 -3 12 -2 9 5 -4 6 -13 8 -20 5 -8 -3
-16 3 -18 12 -3 9 -5 -4 -6 -29z"/>
<path d="M4992 153 c1 -37 1 -37 5 -5 3 18 10 32 18 32 8 0 16 -14 18 -32 l5
-33 -2 35 c-1 28 -5 36 -23 38 -21 3 -23 -1 -21 -35z"/>
<path d="M5064 176 c-9 -23 0 -51 17 -54 19 -4 32 23 24 49 -7 22 -33 25 -41
5z m31 -21 c0 -10 -6 -20 -12 -22 -8 -3 -13 5 -13 22 0 17 5 25 13 23 6 -3 12
-13 12 -23z"/>
<path d="M5121 151 c1 -35 2 -35 8 -7 9 42 29 44 34 4 l5 -33 -2 35 c-1 29 -5
35 -23 36 -20 1 -23 -3 -22 -35z"/>
<path d="M5185 180 c3 -5 8 -10 11 -10 2 0 4 5 4 10 0 6 -5 10 -11 10 -5 0 -7
-4 -4 -10z"/>
<path d="M5291 153 c2 -35 2 -35 6 -8 3 16 10 33 16 37 8 5 6 8 -5 8 -14 0
-18 -8 -17 -37z"/>
<path d="M5337 184 c-4 -4 -7 -18 -7 -31 0 -26 26 -41 42 -25 8 8 5 9 -11 5
-12 -3 -21 -1 -21 6 0 6 9 11 21 11 14 0 19 5 17 17 -3 19 -29 29 -41 17z m33
-14 c0 -5 -7 -10 -15 -10 -8 0 -15 5 -15 10 0 6 7 10 15 10 8 0 15 -4 15 -10z"/>
<path d="M5483 183 c12 -3 17 -14 17 -38 l0 -34 -57 -4 -58 -4 60 1 60 1 3 43
c3 38 1 42 -20 41 -17 -1 -18 -3 -5 -6z"/>
<path d="M5537 184 c-4 -4 -7 -18 -7 -31 0 -26 26 -41 42 -25 8 8 5 9 -11 5
-12 -3 -21 -1 -21 6 0 6 9 11 21 11 14 0 19 5 17 17 -3 19 -29 29 -41 17z m33
-14 c0 -5 -7 -10 -15 -10 -8 0 -15 5 -15 10 0 6 7 10 15 10 8 0 15 -4 15 -10z"/>
<path d="M5602 153 l1 -38 4 33 c3 24 8 32 19 28 8 -3 14 -1 14 4 0 6 -9 10
-20 10 -17 0 -20 -6 -18 -37z"/>
<path d="M5672 178 c-16 -16 -15 -33 3 -48 13 -10 18 -11 28 -1 9 10 8 11 -4
6 -10 -4 -20 -2 -24 4 -3 7 3 11 17 12 23 1 23 1 -2 8 -17 5 -21 9 -12 15 6 4
17 4 24 0 7 -4 8 -3 4 4 -9 15 -19 15 -34 0z"/>
<path d="M5731 153 c2 -35 2 -35 6 -8 3 16 10 33 16 37 8 5 6 8 -5 8 -14 0
-18 -8 -17 -37z"/>
<path d="M5774 176 c-10 -26 0 -51 21 -51 16 0 20 7 20 30 0 33 -30 49 -41 21z
m36 -21 c0 -16 -6 -25 -15 -25 -9 0 -15 9 -15 25 0 16 6 25 15 25 9 0 15 -9
15 -25z"/>
<path d="M5840 186 c0 -2 9 -6 20 -9 11 -3 18 -1 14 4 -5 9 -34 13 -34 5z"/>
<path d="M5461 154 c0 -11 3 -14 6 -6 3 7 2 16 -1 19 -3 4 -6 -2 -5 -13z"/>
<path d="M5860 153 c15 -7 12 -21 -5 -26 -11 -4 -10 -4 2 -3 21 2 25 28 5 32
-7 1 -8 0 -2 -3z"/>
<path d="M6698 453 c-2 -5 -1 -24 3 -43 l6 -35 2 43 c1 39 -3 52 -11 35z"/>
<path d="M6858 453 c-2 -5 -1 -24 3 -43 l6 -35 2 43 c1 39 -3 52 -11 35z"/>
</g>
</svg>
