<?xml version="1.0" standalone="no"?>
<!DOCTYPE svg PUBLIC "-//W3C//DTD SVG 20010904//EN"
 "http://www.w3.org/TR/2001/REC-SVG-20010904/DTD/svg10.dtd">
<svg version="1.0" xmlns="http://www.w3.org/2000/svg"
 width="1142.000000pt" height="671.000000pt" viewBox="0 0 1142.000000 671.000000"
 preserveAspectRatio="xMidYMid meet">

<g transform="translate(0.000000,671.000000) scale(0.100000,-0.100000)"
fill="#000000" stroke="none">
<path d="M4435 6700 c-99 -16 -221 -58 -267 -93 -169 -129 -1 -274 351 -305
l84 -7 148 -442 147 -443 -246 0 -247 0 -247 248 c-161 161 -249 257 -254 275
-9 37 -76 92 -143 118 -120 45 -178 53 -361 53 -190 -1 -278 -17 -385 -69 -76
-37 -110 -77 -110 -130 0 -53 34 -93 110 -130 268 -131 804 -77 884 89 l13 29
244 -244 244 -244 -2 -99 -3 -99 -441 -147 -441 -148 -14 31 c-47 106 -288
177 -554 164 -188 -9 -344 -58 -410 -127 -42 -44 -42 -106 0 -150 66 -69 222
-118 410 -127 269 -13 504 58 556 167 16 34 18 35 458 181 l441 147 0 -99 0
-99 505 0 504 0 3 101 3 102 343 98 344 98 302 -151 301 -150 303 151 302 151
345 0 345 0 0 -100 0 -100 252 -2 252 -3 243 -535 c134 -294 243 -539 243
-545 0 -6 -132 -76 -293 -157 l-294 -146 -194 48 c-106 27 -195 52 -196 57
-23 64 -88 114 -192 147 -270 85 -664 43 -786 -84 -42 -44 -42 -106 0 -150 66
-69 222 -118 410 -127 265 -13 507 58 554 163 l13 31 195 -49 194 -48 299
-150 c190 -95 300 -156 304 -167 3 -10 46 -202 96 -428 50 -225 93 -418 96
-427 5 -17 -11 -18 -245 -18 l-251 0 0 -101 0 -100 -42 6 c-24 3 -223 26 -443
50 -220 24 -401 48 -403 52 -22 64 -88 114 -191 147 -270 85 -664 43 -786 -84
-42 -44 -42 -106 0 -150 122 -127 516 -169 786 -84 103 32 167 81 191 146 2 6
681 -64 846 -87 l42 -6 0 -99 0 -100 246 -2 245 -3 -243 -341 -243 -341 -298
-149 c-164 -82 -301 -152 -303 -156 -3 -4 130 -75 295 -157 l299 -150 -97
-243 -97 -243 -252 -3 -252 -2 0 -99 0 -99 -392 99 c-216 54 -394 101 -395
106 -23 64 -88 114 -192 147 -270 85 -664 43 -786 -84 -42 -44 -42 -106 0
-150 66 -69 222 -118 410 -127 265 -13 507 58 554 163 l13 31 357 -89 c196
-49 373 -93 394 -99 l37 -10 0 -99 0 -100 505 0 505 0 0 100 0 100 243 0 243
0 15 -32 c75 -169 613 -226 884 -93 76 37 110 77 110 130 0 53 -34 93 -110
130 -271 133 -809 76 -884 -93 l-15 -32 -243 0 -243 0 0 100 0 100 -249 0
-249 0 96 242 97 243 297 150 c163 83 300 153 303 157 4 4 -126 74 -289 155
-196 98 -295 152 -291 161 2 7 112 163 242 347 l238 334 253 1 252 0 0 100 0
100 343 0 343 0 15 -32 c75 -169 613 -226 884 -93 76 37 110 77 110 130 0 53
-34 93 -110 130 -271 133 -809 76 -884 -93 l-15 -32 -343 0 -343 0 0 100 0
100 -249 0 c-229 0 -250 1 -255 18 -3 9 -46 202 -96 427 -50 226 -93 418 -96
427 -4 14 50 45 295 167 l300 151 194 48 195 49 13 -31 c47 -105 289 -176 554
-163 188 9 344 58 410 127 42 44 42 106 0 150 -122 127 -516 169 -786 84 -104
-33 -169 -83 -192 -147 -1 -5 -90 -30 -196 -57 l-194 -49 -301 152 -301 152
-242 535 c-134 294 -243 538 -243 542 0 5 110 8 245 8 l245 0 0 100 0 100 193
0 193 0 15 -32 c75 -169 613 -226 884 -93 76 37 110 77 110 130 0 53 -34 93
-110 130 -271 133 -809 76 -884 -93 l-15 -32 -193 0 -193 0 0 100 0 100 -252
1 -253 0 -192 242 -193 242 108 12 c313 35 468 170 330 287 -44 38 -111 67
-217 94 -104 26 -390 22 -496 -7 -101 -27 -172 -62 -210 -101 -24 -25 -30 -40
-30 -75 0 -35 6 -50 30 -75 61 -64 213 -114 379 -126 l91 -7 192 -241 193
-241 -245 -3 -245 -2 0 -100 0 -100 -345 0 -345 0 -303 151 -302 151 -305
-152 -305 -153 -340 -97 -340 -97 -3 98 -3 99 -251 2 -251 3 -147 441 -147
441 88 7 c163 12 314 63 374 126 42 44 42 106 0 150 -38 40 -110 75 -210 101
-92 24 -330 34 -430 19z m410 -24 c143 -32 255 -107 255 -171 0 -65 -111 -139
-260 -172 -104 -24 -366 -24 -470 0 -149 33 -260 107 -260 172 0 54 82 119
193 155 129 41 393 49 542 16z m3500 -200 c143 -32 255 -107 255 -171 0 -65
-111 -139 -260 -172 -104 -24 -366 -24 -470 0 -149 33 -260 107 -260 172 0 54
82 119 193 155 129 41 393 49 542 16z m-4700 -400 c143 -32 255 -107 255 -171
0 -65 -111 -139 -260 -172 -104 -24 -366 -24 -470 0 -149 33 -260 107 -260
172 0 54 82 119 193 155 129 41 393 49 542 16z m3353 -817 l-293 -147 -292
147 -293 146 292 146 293 147 292 -147 293 -146 -292 -146z m2002 146 l0 -195
-495 0 -495 0 0 195 0 195 495 0 495 0 0 -195z m1145 171 c143 -32 255 -107
255 -171 0 -65 -111 -139 -260 -172 -104 -24 -366 -24 -470 0 -149 33 -260
107 -260 172 0 54 82 119 193 155 129 41 393 49 542 16z m-4745 -371 l0 -195
-495 0 -495 0 0 195 0 195 495 0 495 0 0 -195z m-2155 -129 c97 -22 211 -79
236 -119 40 -67 12 -120 -93 -171 -110 -55 -195 -70 -383 -70 -188 0 -273 15
-383 70 -105 51 -133 104 -93 169 18 31 104 82 174 105 129 41 393 49 542 16z
m4500 -1000 c97 -22 211 -79 236 -119 40 -67 12 -120 -93 -171 -110 -55 -195
-70 -383 -70 -188 0 -273 15 -383 70 -105 51 -133 104 -93 169 18 31 104 82
174 105 129 41 393 49 542 16z m1553 -417 l-293 -147 -292 147 -293 146 292
146 293 147 292 -147 293 -146 -292 -146z m1447 417 c97 -22 211 -79 236 -119
40 -67 12 -120 -93 -171 -110 -55 -195 -70 -383 -70 -188 0 -273 15 -383 70
-105 51 -133 104 -93 169 18 31 104 82 174 105 129 41 393 49 542 16z m-3200
-1400 c143 -32 255 -107 255 -171 0 -65 -111 -139 -260 -172 -104 -24 -366
-24 -470 0 -149 33 -260 107 -260 172 0 54 82 119 193 155 129 41 393 49 542
16z m2155 -271 l0 -195 -495 0 -495 0 0 195 0 195 495 0 495 0 0 -195z m1445
171 c143 -32 255 -107 255 -171 0 -65 -111 -139 -260 -172 -104 -24 -366 -24
-470 0 -149 33 -260 107 -260 172 0 54 82 119 193 155 129 41 393 49 542 16z
m-2147 -1517 l-293 -147 -250 126 c-198 99 -246 126 -230 133 17 6 17 8 3 8
-12 1 -18 9 -18 25 0 15 7 26 18 29 13 4 11 5 -5 6 -20 1 -23 -4 -23 -34 0
-19 -2 -35 -5 -35 -2 0 -21 8 -40 17 l-36 17 293 147 293 147 292 -147 293
-146 -292 -146z m-2053 -483 c143 -32 255 -107 255 -171 0 -65 -111 -139 -260
-172 -104 -24 -366 -24 -470 0 -149 33 -260 107 -260 172 0 54 82 119 193 155
129 41 393 49 542 16z m2055 -371 l0 -195 -495 0 -495 0 0 195 0 195 495 0
495 0 0 -195z m1263 166 c255 -67 311 -194 125 -285 -110 -55 -195 -70 -383
-70 -188 0 -273 15 -383 70 -105 51 -133 104 -93 169 18 31 104 82 174 105
139 44 413 50 560 11z"/>
<path d="M4420 6550 c0 -5 5 -10 11 -10 5 0 7 5 4 10 -3 6 -8 10 -11 10 -2 0
-4 -4 -4 -10z"/>
<path d="M4613 6515 c0 -27 2 -38 4 -22 2 15 2 37 0 50 -2 12 -4 0 -4 -28z"/>
<path d="M4643 6515 c0 -27 2 -38 4 -22 2 15 2 37 0 50 -2 12 -4 0 -4 -28z"/>
<path d="M4733 6515 c0 -27 2 -38 4 -22 2 15 2 37 0 50 -2 12 -4 0 -4 -28z"/>
<path d="M4480 6493 c0 -27 4 -43 8 -37 4 6 14 14 22 17 12 4 11 6 -2 6 -12 1
-18 9 -18 25 0 15 7 26 18 29 13 4 11 5 -5 6 -21 1 -23 -4 -23 -46z"/>
<path d="M4563 6534 c24 -8 22 -28 -3 -21 -12 3 -20 0 -20 -8 0 -8 9 -11 25
-7 31 5 30 36 0 39 -16 1 -16 1 -2 -3z"/>
<path d="M4663 6505 c0 -22 2 -30 4 -17 2 12 2 30 0 40 -3 9 -5 -1 -4 -23z"/>
<path d="M4694 6526 c-8 -22 -1 -49 14 -52 7 -1 8 0 2 3 -14 7 -13 50 3 56 9
4 9 6 -1 6 -7 1 -15 -5 -18 -13z"/>
<path d="M4764 6526 c-9 -23 0 -51 17 -54 19 -4 32 23 24 49 -7 22 -33 25 -41
5z m31 -21 c0 -10 -6 -20 -12 -22 -8 -3 -13 5 -13 22 0 17 5 25 13 23 6 -3 12
-13 12 -23z"/>
<path d="M4441 6523 c-1 -7 -8 -13 -16 -13 -8 0 -19 -10 -25 -22 -10 -21 -10
-21 3 -5 8 9 20 17 27 17 7 0 19 -8 27 -17 13 -17 13 -17 5 2 -5 11 -12 27
-15 35 -3 9 -6 10 -6 3z"/>
<path d="M4521 6504 c0 -11 3 -14 6 -6 3 7 2 16 -1 19 -3 4 -6 -2 -5 -13z"/>
<path d="M4565 6480 c-16 -7 -17 -9 -3 -9 9 -1 20 4 23 9 7 11 7 11 -20 0z"/>
<path d="M7823 6315 c0 -27 2 -38 4 -22 2 15 2 37 0 50 -2 12 -4 0 -4 -28z"/>
<path d="M7850 6315 c0 -40 2 -45 23 -45 29 0 47 18 47 45 0 27 -18 45 -47 45
-21 0 -23 -5 -23 -45z m55 0 c0 -23 -5 -31 -22 -33 -20 -3 -23 1 -23 33 0 32
3 36 23 33 17 -2 22 -10 22 -33z"/>
<path d="M8020 6336 c0 -2 7 -7 16 -10 8 -3 12 -2 9 4 -6 10 -25 14 -25 6z"/>
<path d="M8066 6322 c-4 -11 -4 -27 0 -36 8 -20 36 -17 41 4 4 12 3 13 -5 1
-11 -16 -32 -7 -32 14 0 21 21 30 32 14 8 -12 9 -11 5 1 -6 23 -34 24 -41 2z"/>
<path d="M8133 6305 c0 -22 2 -30 4 -17 2 12 2 30 0 40 -3 9 -5 -1 -4 -23z"/>
<path d="M8159 6331 c8 -5 20 -7 27 -4 8 3 14 -6 17 -24 l4 -28 -1 30 c-1 26
-5 30 -31 32 -20 1 -25 -1 -16 -6z"/>
<path d="M8232 6295 c-1 -27 2 -45 6 -39 4 6 15 13 25 17 21 8 20 59 -1 63 -7
1 -8 0 -2 -3 16 -7 12 -53 -4 -53 -9 0 -16 13 -19 33 -3 23 -4 18 -5 -18z"/>
<path d="M8301 6303 c2 -35 2 -35 6 -8 3 16 10 33 16 37 8 5 6 8 -5 8 -14 0
-18 -8 -17 -37z"/>
<path d="M8346 6331 c-4 -5 3 -7 14 -4 23 6 26 13 6 13 -8 0 -17 -4 -20 -9z"/>
<path d="M8001 6304 c0 -11 3 -14 6 -6 3 7 2 16 -1 19 -3 4 -6 -2 -5 -13z"/>
<path d="M8340 6290 c0 -15 6 -19 24 -18 14 1 22 6 20 10 -3 4 -11 5 -19 1 -8
-3 -15 0 -15 5 0 6 8 13 18 15 13 4 11 5 -5 6 -17 1 -23 -5 -23 -19z"/>
<path d="M8025 6280 c-16 -7 -17 -9 -3 -9 9 -1 20 4 23 9 7 11 7 11 -20 0z"/>
<path d="M7913 6253 c59 -2 154 -2 210 0 56 1 8 3 -108 3 -115 0 -161 -2 -102
-3z"/>
<path d="M8283 6253 c20 -2 54 -2 75 0 20 2 3 4 -38 4 -41 0 -58 -2 -37 -4z"/>
<path d="M3230 5951 c0 -5 -9 -11 -21 -14 -30 -8 -23 -62 9 -63 20 -1 22 3 22
42 0 24 -2 44 -5 44 -3 0 -5 -4 -5 -9z m-5 -46 c0 -10 -6 -20 -12 -22 -8 -3
-13 5 -13 22 0 17 5 25 13 23 6 -3 12 -13 12 -23z"/>
<path d="M3383 5915 c0 -27 2 -38 4 -22 2 15 2 37 0 50 -2 12 -4 0 -4 -28z"/>
<path d="M3568 5950 c-5 -17 3 -80 11 -80 7 0 6 79 -2 86 -3 3 -7 0 -9 -6z"/>
<path d="M3327 5933 c-4 -3 -7 -17 -7 -30 0 -26 26 -41 42 -25 8 8 5 9 -11 5
-17 -4 -21 -1 -21 20 0 16 7 27 18 30 14 4 14 5 1 6 -9 0 -19 -2 -22 -6z"/>
<path d="M3413 5905 c0 -22 2 -30 4 -17 2 12 2 30 0 40 -3 9 -5 -1 -4 -23z"/>
<path d="M3453 5934 c24 -8 22 -28 -3 -21 -12 3 -20 0 -20 -8 0 -8 9 -11 25
-7 31 5 30 36 0 39 -16 1 -16 1 -2 -3z"/>
<path d="M3502 5903 c1 -37 1 -37 5 -5 3 18 10 32 18 32 8 0 16 -14 18 -32 l5
-33 -2 35 c-1 28 -5 36 -23 38 -21 3 -23 -1 -21 -35z"/>
<path d="M3607 5934 c-4 -4 -7 -18 -7 -31 0 -26 26 -41 42 -25 8 8 5 9 -11 5
-12 -3 -21 -1 -21 6 0 6 9 11 21 11 14 0 19 5 17 17 -3 19 -29 29 -41 17z m33
-14 c0 -5 -7 -10 -15 -10 -8 0 -15 5 -15 10 0 6 7 10 15 10 8 0 15 -4 15 -10z"/>
<path d="M3455 5880 c-16 -7 -17 -9 -3 -9 9 -1 20 4 23 9 7 11 7 11 -20 0z"/>
<path d="M3268 5853 c72 -2 192 -2 265 0 72 1 13 3 -133 3 -146 0 -205 -2
-132 -3z"/>
<path d="M6363 5415 c0 -27 2 -38 4 -22 2 15 2 37 0 50 -2 12 -4 0 -4 -28z"/>
<path d="M6548 5450 c-5 -17 3 -80 11 -80 7 0 6 79 -2 86 -3 3 -7 0 -9 -6z"/>
<path d="M6320 5436 c0 -2 7 -7 16 -10 8 -3 12 -2 9 4 -6 10 -25 14 -25 6z"/>
<path d="M6393 5405 c0 -22 2 -30 4 -17 2 12 2 30 0 40 -3 9 -5 -1 -4 -23z"/>
<path d="M6427 5433 c-16 -15 -5 -33 19 -33 20 0 25 4 20 16 -3 9 -6 18 -6 20
0 7 -26 5 -33 -3z m28 -13 c3 -5 -1 -10 -9 -10 -9 0 -16 5 -16 10 0 6 4 10 9
10 6 0 13 -4 16 -10z"/>
<path d="M6481 5401 c1 -35 2 -35 8 -7 9 42 29 44 34 4 l5 -33 -2 35 c-1 29
-5 35 -23 36 -20 1 -23 -3 -22 -35z"/>
<path d="M6603 5434 c24 -8 22 -28 -3 -21 -12 3 -20 0 -20 -8 0 -8 9 -11 25
-7 31 5 30 36 0 39 -16 1 -16 1 -2 -3z"/>
<path d="M6724 5426 c-9 -23 0 -51 16 -52 9 0 10 1 3 3 -20 7 -16 51 5 56 16
4 16 5 -1 6 -10 0 -20 -5 -23 -13z"/>
<path d="M6784 5426 c-9 -23 0 -51 17 -54 19 -4 32 23 24 49 -7 22 -33 25 -41
5z m31 -21 c0 -10 -6 -20 -12 -22 -8 -3 -13 5 -13 22 0 17 5 25 13 23 6 -3 12
-13 12 -23z"/>
<path d="M6841 5401 c1 -35 2 -35 8 -7 9 42 29 44 34 4 l5 -33 -2 35 c-1 29
-5 35 -23 36 -20 1 -23 -3 -22 -35z"/>
<path d="M6905 5430 c3 -5 8 -10 11 -10 2 0 4 5 4 10 0 6 -5 10 -11 10 -5 0
-7 -4 -4 -10z"/>
<path d="M6941 5390 c0 -25 3 -38 7 -30 4 8 13 15 21 15 8 0 16 7 18 15 4 13
3 13 -6 0 -8 -11 -13 -12 -22 -3 -16 16 -3 47 17 39 8 -3 12 -2 9 3 -3 6 -14
9 -25 8 -17 -1 -20 -8 -19 -47z"/>
<path d="M7011 5403 c2 -35 2 -35 6 -8 3 16 10 33 16 37 8 5 6 8 -5 8 -14 0
-18 -8 -17 -37z"/>
<path d="M7056 5431 c-3 -5 3 -7 14 -4 11 3 20 1 20 -5 0 -5 -9 -12 -20 -15
-30 -8 -26 -37 5 -35 22 2 26 7 23 33 -3 30 -30 47 -42 26z m29 -41 c-3 -5
-10 -10 -16 -10 -5 0 -9 5 -9 10 0 6 7 10 16 10 8 0 12 -4 9 -10z"/>
<path d="M6301 5404 c0 -11 3 -14 6 -6 3 7 2 16 -1 19 -3 4 -6 -2 -5 -13z"/>
<path d="M6325 5380 c-16 -7 -17 -9 -3 -9 9 -1 20 4 23 9 7 11 7 11 -20 0z"/>
<path d="M6427 5378 c2 -5 10 -8 18 -8 8 0 16 3 18 8 3 4 -5 7 -18 7 -13 0
-21 -3 -18 -7z"/>
<path d="M6605 5380 c-16 -7 -17 -9 -3 -9 9 -1 20 4 23 9 7 11 7 11 -20 0z"/>
<path d="M6658 5353 c12 -2 30 -2 40 0 9 3 -1 5 -23 4 -22 0 -30 -2 -17 -4z"/>
<path d="M8310 5446 c-15 -20 -9 -56 12 -70 14 -8 21 -6 35 9 16 17 17 18 1 6
-25 -18 -48 -7 -48 24 0 31 24 42 48 24 15 -13 16 -12 3 4 -16 21 -35 22 -51
3z"/>
<path d="M8386 5422 c-4 -11 -4 -27 0 -36 8 -20 36 -17 41 4 4 12 3 13 -5 1
-11 -16 -32 -7 -32 14 0 21 21 30 32 14 8 -12 9 -11 5 1 -6 23 -34 24 -41 2z"/>
<path d="M8453 5405 c0 -22 2 -30 4 -17 2 12 2 30 0 40 -3 9 -5 -1 -4 -23z"/>
<path d="M8479 5431 c8 -5 20 -7 27 -4 8 3 14 -6 17 -24 l4 -28 -1 30 c-1 26
-5 30 -31 32 -20 1 -25 -1 -16 -6z"/>
<path d="M8552 5395 c-1 -27 2 -45 6 -39 4 6 15 13 25 17 21 8 20 59 -1 63 -7
1 -8 0 -2 -3 16 -7 12 -53 -4 -53 -9 0 -16 13 -19 33 -3 23 -4 18 -5 -18z"/>
<path d="M8621 5403 c2 -35 2 -35 6 -8 3 16 10 33 16 37 8 5 6 8 -5 8 -14 0
-18 -8 -17 -37z"/>
<path d="M8666 5431 c-4 -5 3 -7 14 -4 23 6 26 13 6 13 -8 0 -17 -4 -20 -9z"/>
<path d="M8660 5390 c0 -15 6 -19 24 -18 14 1 22 6 20 10 -3 4 -11 5 -19 1 -8
-3 -15 0 -15 5 0 6 8 13 18 15 13 4 11 5 -5 6 -17 1 -23 -5 -23 -19z"/>
<path d="M9763 5453 c9 -2 23 -2 30 0 6 3 -1 5 -18 5 -16 0 -22 -2 -12 -5z"/>
<path d="M9942 5415 c0 -39 2 -43 7 -21 9 42 29 44 34 4 l5 -33 -2 35 c-1 24
-6 35 -16 35 -8 0 -18 7 -22 15 -4 8 -6 -7 -6 -35z"/>
<path d="M9827 5433 c-16 -15 -5 -33 19 -33 20 0 25 4 20 16 -3 9 -6 18 -6 20
0 7 -26 5 -33 -3z m28 -13 c3 -5 -1 -10 -9 -10 -9 0 -16 5 -16 10 0 6 4 10 9
10 6 0 13 -4 16 -10z"/>
<path d="M9900 5436 c0 -2 7 -7 16 -10 8 -3 12 -2 9 4 -6 10 -25 14 -25 6z"/>
<path d="M10016 5431 c-3 -5 3 -7 14 -4 11 3 20 1 20 -5 0 -5 -9 -12 -20 -15
-30 -8 -26 -37 5 -35 22 2 26 7 23 33 -3 30 -30 47 -42 26z m29 -41 c-3 -5
-10 -10 -16 -10 -5 0 -9 5 -9 10 0 6 7 10 16 10 8 0 12 -4 9 -10z"/>
<path d="M9758 5413 c6 -2 18 -2 25 0 6 3 1 5 -13 5 -14 0 -19 -2 -12 -5z"/>
<path d="M9881 5404 c0 -11 3 -14 6 -6 3 7 2 16 -1 19 -3 4 -6 -2 -5 -13z"/>
<path d="M9827 5378 c2 -5 10 -8 18 -8 8 0 16 3 18 8 3 4 -5 7 -18 7 -13 0
-21 -3 -18 -7z"/>
<path d="M9905 5380 c-16 -7 -17 -9 -3 -9 9 -1 20 4 23 9 7 11 7 11 -20 0z"/>
<path d="M4730 5239 c-9 -16 -9 -28 -1 -45 10 -23 44 -33 55 -15 3 4 -5 6 -18
4 -26 -5 -42 21 -30 51 7 18 39 22 47 6 3 -6 4 -5 3 2 -5 23 -44 21 -56 -3z"/>
<path d="M4813 5215 c0 -27 2 -38 4 -22 2 15 2 37 0 50 -2 12 -4 0 -4 -28z"/>
<path d="M4998 5250 c-5 -17 3 -80 11 -80 7 0 6 79 -2 86 -3 3 -7 0 -9 -6z"/>
<path d="M4843 5205 c0 -22 2 -30 4 -17 2 12 2 30 0 40 -3 9 -5 -1 -4 -23z"/>
<path d="M4883 5234 c24 -8 22 -28 -3 -21 -12 3 -20 0 -20 -8 0 -8 9 -11 25
-7 31 5 30 36 0 39 -16 1 -16 1 -2 -3z"/>
<path d="M4932 5203 c1 -37 1 -37 5 -5 3 18 10 32 18 32 8 0 16 -14 18 -32 l5
-33 -2 35 c-1 28 -5 36 -23 38 -21 3 -23 -1 -21 -35z"/>
<path d="M5037 5234 c-4 -4 -7 -18 -7 -31 0 -26 26 -41 42 -25 8 8 5 9 -11 5
-12 -3 -21 -1 -21 6 0 6 9 11 21 11 14 0 19 5 17 17 -3 19 -29 29 -41 17z m33
-14 c0 -5 -7 -10 -15 -10 -8 0 -15 5 -15 10 0 6 7 10 15 10 8 0 15 -4 15 -10z"/>
<path d="M4885 5180 c-16 -7 -17 -9 -3 -9 9 -1 20 4 23 9 7 11 7 11 -20 0z"/>
<path d="M2802 4915 c1 -45 1 -47 7 -15 l6 35 22 -35 c13 -19 23 -29 23 -23 0
7 -7 21 -15 30 -8 10 -21 27 -29 38 -14 19 -15 16 -14 -30z"/>
<path d="M3053 4915 c0 -27 2 -38 4 -22 2 15 2 37 0 50 -2 12 -4 0 -4 -28z"/>
<path d="M2886 4922 c-4 -11 -4 -27 0 -36 8 -20 36 -17 41 4 4 12 3 13 -5 1
-11 -16 -32 -7 -32 14 0 21 21 30 32 14 8 -12 9 -11 5 1 -6 23 -34 24 -41 2z"/>
<path d="M2953 4905 c0 -22 2 -30 4 -17 2 12 2 30 0 40 -3 9 -5 -1 -4 -23z"/>
<path d="M2979 4931 c8 -5 20 -7 27 -4 8 3 14 -6 17 -24 l4 -28 -1 30 c-1 26
-5 30 -31 32 -20 1 -25 -1 -16 -6z"/>
<path d="M3080 4933 c5 -2 10 -15 10 -28 0 -13 -5 -26 -10 -28 -6 -3 -5 -4 2
-3 7 2 13 15 13 31 0 16 -6 29 -13 31 -7 1 -8 0 -2 -3z"/>
<path d="M3121 4903 c2 -35 2 -35 6 -8 3 16 10 33 16 37 8 5 6 8 -5 8 -14 0
-18 -8 -17 -37z"/>
<path d="M3167 4933 c-16 -15 -5 -33 19 -33 20 0 25 4 20 16 -3 9 -6 18 -6 20
0 7 -26 5 -33 -3z m28 -13 c3 -5 -1 -10 -9 -10 -9 0 -16 5 -16 10 0 6 4 10 9
10 6 0 13 -4 16 -10z"/>
<path d="M3167 4878 c2 -5 10 -8 18 -8 8 0 16 3 18 8 3 4 -5 7 -18 7 -13 0
-21 -3 -18 -7z"/>
<path d="M7280 3946 c-15 -20 -9 -56 12 -70 14 -8 21 -6 35 9 16 17 17 18 1 6
-25 -18 -48 -7 -48 24 0 31 24 42 48 24 15 -13 16 -12 3 4 -16 21 -35 22 -51
3z"/>
<path d="M7488 3950 c-5 -17 3 -80 11 -80 7 0 6 79 -2 86 -3 3 -7 0 -9 -6z"/>
<path d="M7593 3915 c0 -27 2 -38 4 -22 2 15 2 37 0 50 -2 12 -4 0 -4 -28z"/>
<path d="M7720 3950 c0 -5 -6 -10 -14 -10 -18 0 -29 -31 -20 -54 3 -9 15 -16
25 -16 16 0 19 8 19 45 0 25 -2 45 -5 45 -3 0 -5 -4 -5 -10z m0 -45 c0 -26
-14 -33 -25 -15 -9 14 1 40 15 40 5 0 10 -11 10 -25z"/>
<path d="M7366 3931 c-4 -5 3 -7 14 -4 23 6 26 13 6 13 -8 0 -17 -4 -20 -9z"/>
<path d="M7421 3901 c1 -35 2 -35 8 -7 9 42 29 44 34 4 l5 -33 -2 35 c-1 29
-5 35 -23 36 -20 1 -23 -3 -22 -35z"/>
<path d="M7523 3905 c0 -22 2 -30 4 -17 2 12 2 30 0 40 -3 9 -5 -1 -4 -23z"/>
<path d="M7554 3926 c-8 -22 -1 -49 14 -52 7 -1 8 0 2 3 -14 7 -13 50 3 56 9
4 9 6 -1 6 -7 1 -15 -5 -18 -13z"/>
<path d="M7626 3931 c-4 -5 3 -7 14 -4 23 6 26 13 6 13 -8 0 -17 -4 -20 -9z"/>
<path d="M7360 3890 c0 -15 6 -19 24 -18 14 1 22 6 20 10 -3 4 -11 5 -19 1 -8
-3 -15 0 -15 5 0 6 8 13 18 15 13 4 11 5 -5 6 -17 1 -23 -5 -23 -19z"/>
<path d="M7620 3890 c0 -15 6 -19 24 -18 14 1 22 6 20 10 -3 4 -11 5 -19 1 -8
-3 -15 0 -15 5 0 6 8 13 18 15 13 4 11 5 -5 6 -17 1 -23 -5 -23 -19z"/>
<path d="M8708 3850 c-5 -17 3 -80 11 -80 7 0 6 79 -2 86 -3 3 -7 0 -9 -6z"/>
<path d="M8940 3850 c0 -5 -6 -10 -14 -10 -18 0 -29 -31 -20 -54 3 -9 15 -16
25 -16 16 0 19 8 19 45 0 25 -2 45 -5 45 -3 0 -5 -4 -5 -10z m0 -45 c0 -26
-14 -33 -25 -15 -9 14 1 40 15 40 5 0 10 -11 10 -25z"/>
<path d="M8524 3826 c-9 -23 0 -51 16 -52 9 0 10 1 3 3 -20 7 -16 51 5 56 16
4 16 5 -1 6 -10 0 -20 -5 -23 -13z"/>
<path d="M8584 3826 c-9 -23 0 -51 17 -54 19 -4 32 23 24 49 -7 22 -33 25 -41
5z m31 -21 c0 -10 -6 -20 -12 -22 -8 -3 -13 5 -13 22 0 17 5 25 13 23 6 -3 12
-13 12 -23z"/>
<path d="M8641 3801 c1 -35 2 -35 8 -7 9 42 29 44 34 4 l5 -33 -2 35 c-1 29
-5 35 -23 36 -20 1 -23 -3 -22 -35z"/>
<path d="M8763 3834 c24 -8 22 -28 -3 -21 -12 3 -20 0 -20 -8 0 -8 9 -11 25
-7 31 5 30 36 0 39 -16 1 -16 1 -2 -3z"/>
<path d="M8812 3803 c1 -37 1 -37 5 -5 3 18 10 32 18 32 8 0 16 -14 18 -32 l5
-33 -2 35 c-1 28 -5 36 -23 38 -21 3 -23 -1 -21 -35z"/>
<path d="M8883 3805 c0 -22 2 -30 4 -17 2 12 2 30 0 40 -3 9 -5 -1 -4 -23z"/>
<path d="M8974 3826 c-10 -26 0 -51 21 -51 16 0 20 7 20 30 0 33 -30 49 -41
21z m36 -21 c0 -16 -6 -25 -15 -25 -9 0 -15 9 -15 25 0 16 6 25 15 25 9 0 15
-9 15 -25z"/>
<path d="M9120 3836 c0 -2 7 -7 16 -10 8 -3 12 -2 9 4 -6 10 -25 14 -25 6z"/>
<path d="M9166 3822 c-4 -11 -4 -27 0 -36 8 -20 36 -17 41 4 4 12 3 13 -5 1
-11 -16 -32 -7 -32 14 0 21 21 30 32 14 8 -12 9 -11 5 1 -6 23 -34 24 -41 2z"/>
<path d="M9233 3805 c0 -22 2 -30 4 -17 2 12 2 30 0 40 -3 9 -5 -1 -4 -23z"/>
<path d="M9259 3831 c8 -5 20 -7 27 -4 8 3 14 -6 17 -24 l4 -28 -1 30 c-1 26
-5 30 -31 32 -20 1 -25 -1 -16 -6z"/>
<path d="M9332 3795 c-1 -27 2 -45 6 -39 4 6 15 13 25 17 21 8 20 59 -1 63 -7
1 -8 0 -2 -3 16 -7 12 -53 -4 -53 -9 0 -16 13 -19 33 -3 23 -4 18 -5 -18z"/>
<path d="M9401 3803 c2 -35 2 -35 6 -8 3 16 10 33 16 37 8 5 6 8 -5 8 -14 0
-18 -8 -17 -37z"/>
<path d="M9446 3831 c-4 -5 3 -7 14 -4 23 6 26 13 6 13 -8 0 -17 -4 -20 -9z"/>
<path d="M9101 3804 c0 -11 3 -14 6 -6 3 7 2 16 -1 19 -3 4 -6 -2 -5 -13z"/>
<path d="M9440 3790 c0 -15 6 -19 24 -18 14 1 22 6 20 10 -3 4 -11 5 -19 1 -8
-3 -15 0 -15 5 0 6 8 13 18 15 13 4 11 5 -5 6 -17 1 -23 -5 -23 -19z"/>
<path d="M8765 3780 c-16 -7 -17 -9 -3 -9 9 -1 20 4 23 9 7 11 7 11 -20 0z"/>
<path d="M9125 3780 c-16 -7 -17 -9 -3 -9 9 -1 20 4 23 9 7 11 7 11 -20 0z"/>
<path d="M9043 3753 c9 -2 25 -2 35 0 9 3 1 5 -18 5 -19 0 -27 -2 -17 -5z"/>
<path d="M10343 3953 c9 -2 23 -2 30 0 6 3 -1 5 -18 5 -16 0 -22 -2 -12 -5z"/>
<path d="M10600 3950 c0 -5 -6 -10 -14 -10 -18 0 -29 -31 -20 -54 3 -9 15 -16
25 -16 16 0 19 8 19 45 0 25 -2 45 -5 45 -3 0 -5 -4 -5 -10z m0 -45 c0 -26
-14 -33 -25 -15 -9 14 1 40 15 40 5 0 10 -11 10 -25z"/>
<path d="M10405 3930 c-9 -15 4 -30 23 -29 15 1 15 2 0 6 -10 2 -18 8 -18 13
0 5 8 11 18 13 15 4 15 5 0 6 -9 0 -20 -3 -23 -9z"/>
<path d="M10506 3931 c-4 -5 3 -7 14 -4 23 6 26 13 6 13 -8 0 -17 -4 -20 -9z"/>
<path d="M10634 3926 c-10 -26 0 -51 21 -51 16 0 20 7 20 30 0 33 -30 49 -41
21z m36 -21 c0 -16 -6 -25 -15 -25 -9 0 -15 9 -15 25 0 16 6 25 15 25 9 0 15
-9 15 -25z"/>
<path d="M10343 3913 c9 -2 23 -2 30 0 6 3 -1 5 -18 5 -16 0 -22 -2 -12 -5z"/>
<path d="M10500 3890 c0 -15 6 -19 24 -18 14 1 22 6 20 10 -3 4 -11 5 -19 1
-8 -3 -15 0 -15 5 0 6 8 13 18 15 13 4 11 5 -5 6 -17 1 -23 -5 -23 -19z"/>
<path d="M10408 3878 c5 -5 16 -8 23 -6 8 3 3 7 -10 11 -17 4 -21 3 -13 -5z"/>
<path d="M10343 3873 c9 -2 23 -2 30 0 6 3 -1 5 -18 5 -16 0 -22 -2 -12 -5z"/>
<path d="M7020 2515 c0 -41 2 -45 24 -45 14 0 27 4 30 9 3 4 -6 6 -19 3 -23
-4 -25 -1 -25 33 0 34 2 37 25 33 13 -3 22 -1 19 3 -3 5 -16 9 -30 9 -22 0
-24 -4 -24 -45z"/>
<path d="M7380 2550 c0 -5 -6 -10 -14 -10 -18 0 -29 -31 -20 -54 3 -9 15 -16
25 -16 16 0 19 8 19 45 0 25 -2 45 -5 45 -3 0 -5 -4 -5 -10z m0 -45 c0 -26
-14 -33 -25 -15 -9 14 1 40 15 40 5 0 10 -11 10 -25z"/>
<path d="M7538 2550 c-5 -17 3 -80 11 -80 7 0 6 79 -2 86 -3 3 -7 0 -9 -6z"/>
<path d="M7172 2495 c-1 -27 2 -45 6 -39 4 6 15 13 25 17 21 8 20 59 -1 63 -7
1 -8 0 -2 -3 16 -7 12 -53 -4 -53 -9 0 -16 13 -19 33 -3 23 -4 18 -5 -18z"/>
<path d="M7241 2503 c2 -35 2 -35 6 -8 3 16 10 33 16 37 8 5 6 8 -5 8 -14 0
-18 -8 -17 -37z"/>
<path d="M7284 2526 c-9 -23 0 -51 17 -54 19 -4 32 23 24 49 -7 22 -33 25 -41
5z m31 -21 c0 -10 -6 -20 -12 -22 -8 -3 -13 5 -13 22 0 17 5 25 13 23 6 -3 12
-13 12 -23z"/>
<path d="M7413 2508 c1 -26 7 -33 25 -34 19 -1 22 3 21 35 -1 35 -2 35 -8 7
-8 -40 -28 -44 -35 -7 l-6 31 3 -32z"/>
<path d="M7484 2526 c-9 -23 0 -51 16 -52 9 0 10 1 3 3 -20 7 -16 51 5 56 16
4 16 5 -1 6 -10 0 -20 -5 -23 -13z"/>
<path d="M7574 2526 c-10 -26 0 -51 21 -51 16 0 20 7 20 30 0 33 -30 49 -41
21z m36 -21 c0 -16 -6 -25 -15 -25 -9 0 -15 9 -15 25 0 16 6 25 15 25 9 0 15
-9 15 -25z"/>
<path d="M7081 2514 c0 -11 3 -14 6 -6 3 7 2 16 -1 19 -3 4 -6 -2 -5 -13z"/>
<path d="M7018 2453 c29 -2 74 -2 100 0 26 2 2 3 -53 3 -55 0 -76 -1 -47 -3z"/>
<path d="M7298 2453 c61 -2 163 -2 225 0 61 1 11 3 -113 3 -124 0 -174 -2
-112 -3z"/>
<path d="M8971 2413 c1 -27 4 -38 6 -25 3 13 12 22 23 22 10 0 21 4 24 9 3 4
-6 6 -19 3 -19 -3 -25 0 -25 13 0 13 6 16 25 13 13 -3 22 -1 19 3 -3 5 -16 9
-30 9 -22 0 -24 -3 -23 -47z"/>
<path d="M9200 2451 c0 -5 -9 -11 -21 -14 -30 -8 -23 -62 9 -63 20 -1 22 3 22
42 0 24 -2 44 -5 44 -3 0 -5 -4 -5 -9z m-5 -46 c0 -10 -6 -20 -12 -22 -8 -3
-13 5 -13 22 0 17 5 25 13 23 6 -3 12 -13 12 -23z"/>
<path d="M9348 2450 c-5 -17 3 -80 11 -80 7 0 6 79 -2 86 -3 3 -7 0 -9 -6z"/>
<path d="M9051 2403 c2 -35 2 -35 6 -8 3 16 10 33 16 37 8 5 6 8 -5 8 -14 0
-18 -8 -17 -37z"/>
<path d="M9094 2426 c-10 -26 0 -51 21 -51 16 0 20 7 20 30 0 33 -30 49 -41
21z m36 -21 c0 -16 -6 -25 -15 -25 -9 0 -15 9 -15 25 0 16 6 25 15 25 9 0 15
-9 15 -25z"/>
<path d="M9224 2411 c0 -21 7 -36 16 -38 10 -3 11 -2 3 4 -6 4 -13 22 -16 38
-4 27 -5 27 -3 -4z"/>
<path d="M9263 2405 c0 -22 2 -30 4 -17 2 12 2 30 0 40 -3 9 -5 -1 -4 -23z"/>
<path d="M9297 2433 c-4 -3 -7 -17 -7 -30 0 -26 26 -41 42 -25 8 8 5 9 -11 5
-17 -4 -21 -1 -21 20 0 16 7 27 18 30 14 4 14 5 1 6 -9 0 -19 -2 -22 -6z"/>
<path d="M9386 2422 c-4 -11 -4 -27 0 -36 8 -20 36 -17 41 4 4 12 3 13 -5 1
-11 -16 -32 -7 -32 14 0 21 21 30 32 14 8 -12 9 -11 5 1 -6 23 -34 24 -41 2z"/>
<path d="M10702 2415 c1 -45 1 -47 7 -15 l6 35 22 -35 c13 -19 23 -29 23 -23
0 7 -7 21 -15 30 -8 10 -21 27 -29 38 -14 19 -15 16 -14 -30z"/>
<path d="M10953 2415 c0 -27 2 -38 4 -22 2 15 2 37 0 50 -2 12 -4 0 -4 -28z"/>
<path d="M10786 2422 c-4 -11 -4 -27 0 -36 8 -20 36 -17 41 4 4 12 3 13 -5 1
-11 -16 -32 -7 -32 14 0 21 21 30 32 14 8 -12 9 -11 5 1 -6 23 -34 24 -41 2z"/>
<path d="M10853 2405 c0 -22 2 -30 4 -17 2 12 2 30 0 40 -3 9 -5 -1 -4 -23z"/>
<path d="M10879 2431 c8 -5 20 -7 27 -4 8 3 14 -6 17 -24 l4 -28 -1 30 c-1 26
-5 30 -31 32 -20 1 -25 -1 -16 -6z"/>
<path d="M10980 2433 c5 -2 10 -15 10 -28 0 -13 -5 -26 -10 -28 -6 -3 -5 -4 2
-3 7 2 13 15 13 31 0 16 -6 29 -13 31 -7 1 -8 0 -2 -3z"/>
<path d="M11021 2403 c2 -35 2 -35 6 -8 3 16 10 33 16 37 8 5 6 8 -5 8 -14 0
-18 -8 -17 -37z"/>
<path d="M11067 2433 c-16 -15 -5 -33 19 -33 20 0 25 4 20 16 -3 9 -6 18 -6
20 0 7 -26 5 -33 -3z m28 -13 c3 -5 -1 -10 -9 -10 -9 0 -16 5 -16 10 0 6 4 10
9 10 6 0 13 -4 16 -10z"/>
<path d="M11067 2378 c2 -5 10 -8 18 -8 8 0 16 3 18 8 3 4 -5 7 -18 7 -13 0
-21 -3 -18 -7z"/>
<path d="M8413 1215 c0 -27 2 -38 4 -22 2 15 2 37 0 50 -2 12 -4 0 -4 -28z"/>
<path d="M8858 1250 c-5 -17 3 -80 11 -80 7 0 6 79 -2 86 -3 3 -7 0 -9 -6z"/>
<path d="M8261 1203 c2 -35 2 -35 6 -8 3 16 10 33 16 37 8 5 6 8 -5 8 -14 0
-18 -8 -17 -37z"/>
<path d="M8306 1222 c-4 -11 -4 -27 0 -36 8 -20 36 -17 41 4 4 12 3 13 -5 1
-11 -16 -32 -7 -32 14 0 21 21 30 32 14 8 -12 9 -11 5 1 -6 23 -34 24 -41 2z"/>
<path d="M8374 1226 c-8 -22 -1 -49 14 -52 7 -1 8 0 2 3 -14 7 -13 50 3 56 9
4 9 6 -1 6 -7 1 -15 -5 -18 -13z"/>
<path d="M8442 1213 c-2 -35 13 -52 31 -34 9 9 8 11 -5 6 -13 -5 -17 0 -21 27
l-4 33 -1 -32z"/>
<path d="M8520 1236 c0 -2 7 -7 16 -10 8 -3 12 -2 9 4 -6 10 -25 14 -25 6z"/>
<path d="M8604 1226 c-9 -23 0 -51 17 -54 19 -4 32 23 24 49 -7 22 -33 25 -41
5z m31 -21 c0 -10 -6 -20 -12 -22 -8 -3 -13 5 -13 22 0 17 5 25 13 23 6 -3 12
-13 12 -23z"/>
<path d="M8737 1233 c-4 -3 -7 -17 -7 -30 0 -26 26 -41 42 -25 8 8 5 9 -11 5
-17 -4 -21 -1 -21 20 0 16 7 27 18 30 14 4 14 5 1 6 -9 0 -19 -2 -22 -6z"/>
<path d="M8796 1231 c-3 -5 3 -7 14 -4 11 3 20 1 20 -5 0 -5 -9 -12 -20 -15
-30 -8 -26 -37 5 -35 22 2 26 7 23 33 -3 30 -30 47 -42 26z m29 -41 c-3 -5
-10 -10 -16 -10 -5 0 -9 5 -9 10 0 6 7 10 16 10 8 0 12 -4 9 -10z"/>
<path d="M8897 1234 c-4 -4 -7 -18 -7 -31 0 -26 26 -41 42 -25 8 8 5 9 -11 5
-12 -3 -21 -1 -21 6 0 6 9 11 21 11 14 0 19 5 17 17 -3 19 -29 29 -41 17z m33
-14 c0 -5 -7 -10 -15 -10 -8 0 -15 5 -15 10 0 6 7 10 15 10 8 0 15 -4 15 -10z"/>
<path d="M8966 1232 c-2 -4 4 -8 15 -8 10 0 19 4 19 8 0 4 -6 8 -14 8 -8 0
-17 -4 -20 -8z"/>
<path d="M9026 1222 c-4 -11 -4 -27 0 -36 8 -20 36 -17 41 4 4 12 3 13 -5 1
-11 -16 -32 -7 -32 14 0 21 21 30 32 14 8 -12 9 -11 5 1 -6 23 -34 24 -41 2z"/>
<path d="M9091 1203 c2 -35 2 -35 6 -8 3 16 10 33 16 37 8 5 6 8 -5 8 -14 0
-18 -8 -17 -37z"/>
<path d="M9133 1205 c0 -22 2 -30 4 -17 2 12 2 30 0 40 -3 9 -5 -1 -4 -23z"/>
<path d="M9166 1231 c-4 -5 3 -7 14 -4 23 6 26 13 6 13 -8 0 -17 -4 -20 -9z"/>
<path d="M8241 1204 c0 -11 3 -14 6 -6 3 7 2 16 -1 19 -3 4 -6 -2 -5 -13z"/>
<path d="M8501 1204 c0 -11 3 -14 6 -6 3 7 2 16 -1 19 -3 4 -6 -2 -5 -13z"/>
<path d="M9160 1190 c0 -15 6 -19 24 -18 14 1 22 6 20 10 -3 4 -11 5 -19 1 -8
-3 -15 0 -15 5 0 6 8 13 18 15 13 4 11 5 -5 6 -17 1 -23 -5 -23 -19z"/>
<path d="M8525 1180 c-16 -7 -17 -9 -3 -9 9 -1 20 4 23 9 7 11 7 11 -20 0z"/>
<path d="M8975 1174 c15 -11 15 -13 1 -17 -14 -4 -14 -5 0 -3 24 2 26 32 2 32
-17 0 -18 -1 -3 -12z"/>
<path d="M8668 1153 c12 -2 30 -2 40 0 9 3 -1 5 -23 4 -22 0 -30 -2 -17 -4z"/>
<path d="M6373 415 c0 -27 2 -38 4 -22 2 15 2 37 0 50 -2 12 -4 0 -4 -28z"/>
<path d="M6430 451 c19 -5 25 -13 25 -36 0 -23 -6 -31 -25 -36 -21 -6 -22 -7
-4 -8 26 -1 44 17 44 44 0 27 -18 45 -44 44 -18 -1 -17 -2 4 -8z"/>
<path d="M6564 426 c-9 -23 0 -51 16 -52 9 0 10 1 3 3 -20 7 -16 51 5 56 16 4
16 5 -1 6 -10 0 -20 -5 -23 -13z"/>
<path d="M6626 431 c-4 -5 3 -7 14 -4 23 6 26 13 6 13 -8 0 -17 -4 -20 -9z"/>
<path d="M6727 433 c-16 -15 -5 -33 19 -33 20 0 25 4 20 16 -3 9 -6 18 -6 20
0 7 -26 5 -33 -3z m28 -13 c3 -5 -1 -10 -9 -10 -9 0 -16 5 -16 10 0 6 4 10 9
10 6 0 13 -4 16 -10z"/>
<path d="M6803 433 c12 -3 17 -14 17 -38 0 -27 -5 -35 -22 -38 -20 -5 -20 -5
2 -4 22 2 25 7 28 45 3 38 1 42 -20 41 -17 -1 -18 -3 -5 -6z"/>
<path d="M6854 426 c-10 -26 0 -51 21 -51 16 0 20 7 20 30 0 33 -30 49 -41 21z
m36 -21 c0 -16 -6 -25 -15 -25 -9 0 -15 9 -15 25 0 16 6 25 15 25 9 0 15 -9
15 -25z"/>
<path d="M6921 403 c2 -35 2 -35 6 -8 3 16 10 33 16 37 8 5 6 8 -5 8 -14 0
-18 -8 -17 -37z"/>
<path d="M6963 405 c0 -22 2 -30 4 -17 2 12 2 30 0 40 -3 9 -5 -1 -4 -23z"/>
<path d="M6986 431 c-3 -5 3 -7 14 -4 11 3 20 1 20 -5 0 -5 -9 -12 -21 -15
-22 -6 -22 -29 -1 -33 7 -1 8 0 2 3 -15 7 -12 23 4 23 8 0 17 -8 20 -17 2 -10
4 -2 3 17 -2 34 -27 54 -41 31z"/>
<path d="M6781 404 c0 -11 3 -14 6 -6 3 7 2 16 -1 19 -3 4 -6 -2 -5 -13z"/>
<path d="M6620 390 c0 -15 6 -19 24 -18 14 1 22 6 20 10 -3 4 -11 5 -19 1 -8
-3 -15 0 -15 5 0 6 8 13 18 15 13 4 11 5 -5 6 -17 1 -23 -5 -23 -19z"/>
<path d="M6727 378 c2 -5 10 -8 18 -8 8 0 16 3 18 8 3 4 -5 7 -18 7 -13 0 -21
-3 -18 -7z"/>
<path d="M6463 353 c59 -2 154 -2 210 0 56 1 8 3 -108 3 -115 0 -161 -2 -102
-3z"/>
<path d="M6888 353 c28 -2 76 -2 105 0 28 2 5 3 -53 3 -58 0 -81 -1 -52 -3z"/>
<path d="M8260 246 c-15 -20 -9 -56 12 -70 14 -8 21 -6 35 9 16 17 17 18 1 6
-25 -18 -48 -7 -48 24 0 31 24 42 48 24 15 -13 16 -12 3 4 -16 21 -35 22 -51
3z"/>
<path d="M8346 231 c-4 -5 3 -7 14 -4 23 6 26 13 6 13 -8 0 -17 -4 -20 -9z"/>
<path d="M8447 233 c-16 -15 -5 -33 19 -33 20 0 25 4 20 16 -3 9 -6 18 -6 20
0 7 -26 5 -33 -3z m28 -13 c3 -5 -1 -10 -9 -10 -9 0 -16 5 -16 10 0 6 4 10 9
10 6 0 13 -4 16 -10z"/>
<path d="M8523 233 c12 -3 17 -14 17 -38 0 -27 -5 -35 -22 -38 -20 -5 -20 -5
2 -4 22 2 25 7 28 45 3 38 1 42 -20 41 -17 -1 -18 -3 -5 -6z"/>
<path d="M8574 226 c-10 -26 0 -51 21 -51 16 0 20 7 20 30 0 33 -30 49 -41 21z
m36 -21 c0 -16 -6 -25 -15 -25 -9 0 -15 9 -15 25 0 16 6 25 15 25 9 0 15 -9
15 -25z"/>
<path d="M8641 203 c2 -35 2 -35 6 -8 3 16 10 33 16 37 8 5 6 8 -5 8 -14 0
-18 -8 -17 -37z"/>
<path d="M8683 205 c0 -22 2 -30 4 -17 2 12 2 30 0 40 -3 9 -5 -1 -4 -23z"/>
<path d="M8706 231 c-3 -5 3 -7 14 -4 11 3 20 1 20 -5 0 -5 -9 -12 -21 -15
-22 -6 -22 -29 -1 -33 7 -1 8 0 2 3 -15 7 -12 23 4 23 8 0 17 -8 20 -17 2 -10
4 -2 3 17 -2 34 -27 54 -41 31z"/>
<path d="M8501 204 c0 -11 3 -14 6 -6 3 7 2 16 -1 19 -3 4 -6 -2 -5 -13z"/>
<path d="M8340 190 c0 -15 6 -19 24 -18 14 1 22 6 20 10 -3 4 -11 5 -19 1 -8
-3 -15 0 -15 5 0 6 8 13 18 15 13 4 11 5 -5 6 -17 1 -23 -5 -23 -19z"/>
<path d="M8447 178 c2 -5 10 -8 18 -8 8 0 16 3 18 8 3 4 -5 7 -18 7 -13 0 -21
-3 -18 -7z"/>
<path d="M9802 215 c1 -45 1 -47 7 -15 l6 35 22 -35 c13 -19 23 -29 23 -23 0
7 -7 21 -15 30 -8 10 -21 27 -29 38 -14 19 -15 16 -14 -30z"/>
<path d="M10053 215 c0 -27 2 -38 4 -22 2 15 2 37 0 50 -2 12 -4 0 -4 -28z"/>
<path d="M9886 222 c-4 -11 -4 -27 0 -36 8 -20 36 -17 41 4 4 12 3 13 -5 1
-11 -16 -32 -7 -32 14 0 21 21 30 32 14 8 -12 9 -11 5 1 -6 23 -34 24 -41 2z"/>
<path d="M9953 205 c0 -22 2 -30 4 -17 2 12 2 30 0 40 -3 9 -5 -1 -4 -23z"/>
<path d="M9979 231 c8 -5 20 -7 27 -4 8 3 14 -6 17 -24 l4 -28 -1 30 c-1 26
-5 30 -31 32 -20 1 -25 -1 -16 -6z"/>
<path d="M10080 233 c5 -2 10 -15 10 -28 0 -13 -5 -26 -10 -28 -6 -3 -5 -4 2
-3 7 2 13 15 13 31 0 16 -6 29 -13 31 -7 1 -8 0 -2 -3z"/>
<path d="M10121 203 c2 -35 2 -35 6 -8 3 16 10 33 16 37 8 5 6 8 -5 8 -14 0
-18 -8 -17 -37z"/>
<path d="M10167 233 c-16 -15 -5 -33 19 -33 20 0 25 4 20 16 -3 9 -6 18 -6 20
0 7 -26 5 -33 -3z m28 -13 c3 -5 -1 -10 -9 -10 -9 0 -16 5 -16 10 0 6 4 10 9
10 6 0 13 -4 16 -10z"/>
<path d="M10167 178 c2 -5 10 -8 18 -8 8 0 16 3 18 8 3 4 -5 7 -18 7 -13 0
-21 -3 -18 -7z"/>
<path d="M7860 5595 c0 -8 4 -15 10 -15 5 0 7 7 4 15 -4 8 -8 15 -10 15 -2 0
-4 -7 -4 -15z"/>
<path d="M7910 5579 c0 -28 -2 -30 -17 -18 -15 13 -15 12 -5 -8 22 -40 32 -36
32 11 0 25 -2 46 -5 46 -3 0 -5 -14 -5 -31z"/>
<path d="M5679 5443 c-8 -10 -9 -14 -2 -10 8 5 13 -5 16 -30 3 -35 4 -34 5 10
2 52 1 55 -19 30z"/>
<path d="M8730 5095 c0 -8 4 -15 10 -15 5 0 7 7 4 15 -4 8 -8 15 -10 15 -2 0
-4 -7 -4 -15z"/>
<path d="M8780 5079 c0 -28 -2 -30 -17 -18 -15 13 -15 12 -5 -8 22 -40 32 -36
32 11 0 25 -2 46 -5 46 -3 0 -5 -14 -5 -31z"/>
<path d="M4635 3600 c-157 -25 -292 -89 -323 -154 -28 -58 11 -126 98 -171 17
-9 30 -19 30 -23 0 -4 -65 -194 -144 -422 l-143 -415 -122 -3 -121 -3 0 151 0
150 -955 0 -955 0 0 -50 0 -50 -148 -74 -147 -73 -192 216 -192 216 107 12
c313 35 467 170 330 287 -44 38 -111 67 -217 94 -104 26 -390 22 -496 -7 -101
-27 -172 -62 -210 -101 -42 -44 -42 -106 0 -150 61 -64 213 -115 379 -126 l91
-7 190 -214 c105 -118 191 -217 193 -221 1 -4 -63 -40 -143 -80 l-145 -72
-193 0 -193 0 -15 32 c-75 169 -613 226 -884 93 -76 -37 -110 -77 -110 -130 0
-53 34 -93 110 -130 271 -133 809 -76 884 93 l15 32 193 0 193 0 300 -150 300
-150 0 -50 0 -50 955 0 955 0 0 50 0 51 122 -3 121 -3 72 -225 71 -225 -80 -7
c-169 -16 -300 -57 -368 -117 -39 -35 -43 -43 -43 -84 0 -55 33 -95 110 -132
109 -53 195 -68 390 -68 195 0 281 15 390 68 77 37 110 77 110 132 0 41 -4 49
-43 84 -69 60 -200 102 -371 117 l-85 7 -26 85 c-15 47 -47 149 -72 228 l-46
142 122 0 121 0 297 -233 c228 -178 298 -238 303 -259 14 -60 112 -117 264
-156 104 -26 390 -22 496 7 101 27 172 62 210 101 42 44 42 106 0 150 -122
127 -516 169 -786 84 -85 -27 -156 -74 -177 -118 -17 -33 23 -59 -326 214
l-275 215 -1 98 0 97 143 0 143 0 15 -32 c75 -169 613 -226 884 -93 76 37 110
77 110 130 0 53 -34 93 -110 130 -271 133 -809 76 -884 -93 l-15 -32 -143 0
-143 0 0 95 0 94 38 10 c205 53 874 191 949 196 165 10 317 61 378 125 42 44
42 106 0 150 -38 39 -109 74 -210 102 -68 18 -106 21 -260 21 -195 0 -281 -15
-390 -68 -77 -37 -110 -77 -110 -132 0 -41 4 -49 43 -84 63 -55 181 -96 337
-114 59 -8 51 -10 -360 -102 -418 -93 -421 -93 -541 -91 l-121 3 144 414 c79
228 145 416 147 419 3 2 44 -7 93 -19 77 -21 111 -24 263 -23 147 1 188 4 255
23 101 27 172 62 210 101 42 44 42 106 0 150 -38 40 -110 75 -210 101 -92 24
-330 34 -430 19z m410 -24 c97 -22 211 -79 236 -119 40 -67 12 -120 -93 -171
-110 -55 -195 -70 -383 -70 -188 0 -273 15 -383 70 -105 51 -133 104 -93 169
18 31 104 82 174 105 129 41 393 49 542 16z m-3500 -300 c39 -9 103 -32 143
-52 150 -73 150 -165 0 -238 -110 -55 -195 -70 -383 -70 -188 0 -273 15 -383
70 -105 51 -133 104 -93 169 18 31 104 82 174 105 129 41 393 49 542 16z
m4000 -300 c97 -22 211 -79 236 -119 40 -67 12 -120 -93 -171 -110 -55 -195
-70 -383 -70 -188 0 -273 15 -383 70 -105 51 -133 104 -93 169 18 31 104 82
174 105 129 41 393 49 542 16z m-1645 -421 l0 -145 -250 0 -250 0 0 -205 0
-205 250 0 250 0 0 -45 0 -45 -945 0 -945 0 0 45 0 45 300 150 c165 83 300
152 300 155 0 3 -135 72 -300 155 l-300 150 0 45 0 45 945 0 945 0 0 -145z
m-1602 -396 l-293 -147 -292 147 -293 146 292 146 293 147 292 -147 293 -146
-292 -146z m-1553 317 c143 -32 255 -107 255 -171 0 -65 -111 -139 -260 -172
-104 -24 -366 -24 -470 0 -149 33 -260 107 -260 172 0 54 82 119 193 155 129
41 393 49 542 16z m3655 -271 l0 -195 -495 0 -495 0 0 195 0 195 495 0 495 0
0 -195z m1045 171 c143 -32 255 -107 255 -171 0 -65 -111 -139 -260 -172 -104
-24 -366 -24 -470 0 -149 33 -260 107 -260 172 0 54 82 119 193 155 129 41
393 49 542 16z m300 -670 c143 -32 255 -107 255 -171 0 -65 -111 -139 -260
-172 -104 -24 -366 -24 -470 0 -149 33 -260 107 -260 172 0 54 82 119 193 155
129 41 393 49 542 16z m-1200 -200 c143 -32 255 -107 255 -171 0 -65 -111
-139 -260 -172 -104 -24 -366 -24 -470 0 -149 33 -260 107 -260 172 0 54 82
119 193 155 129 41 393 49 542 16z"/>
<path d="M5006 3458 c3 -4 9 -8 15 -8 5 0 9 4 9 8 0 5 -7 9 -15 9 -8 0 -12 -4
-9 -9z"/>
<path d="M4510 3446 c-15 -20 -9 -56 12 -70 14 -8 21 -6 35 9 16 17 17 18 1 6
-25 -18 -48 -7 -48 24 0 31 24 42 48 24 15 -13 16 -12 3 4 -16 21 -35 22 -51
3z"/>
<path d="M4718 3450 c-5 -17 3 -80 11 -80 7 0 6 79 -2 86 -3 3 -7 0 -9 -6z"/>
<path d="M4594 3426 c-9 -23 0 -51 17 -54 19 -4 32 23 24 49 -7 22 -33 25 -41
5z m31 -21 c0 -10 -6 -20 -12 -22 -8 -3 -13 5 -13 22 0 17 5 25 13 23 6 -3 12
-13 12 -23z"/>
<path d="M4651 3401 c1 -35 2 -35 8 -7 9 42 29 44 34 4 l5 -33 -2 35 c-1 29
-5 35 -23 36 -20 1 -23 -3 -22 -35z"/>
<path d="M4751 3403 c2 -35 2 -35 6 -8 3 16 10 33 16 37 8 5 6 8 -5 8 -14 0
-18 -8 -17 -37z"/>
<path d="M4796 3431 c-3 -5 3 -7 14 -4 11 3 20 1 20 -5 0 -5 -9 -12 -21 -15
-22 -6 -22 -29 -1 -33 7 -1 8 0 2 3 -15 7 -12 23 4 23 8 0 17 -8 20 -17 2 -10
4 -2 3 17 -2 34 -27 54 -41 31z"/>
<path d="M4864 3428 c-4 -6 0 -16 9 -23 22 -16 21 -22 0 -28 -16 -4 -16 -5 -1
-6 24 -2 34 20 15 34 -21 15 -22 29 -1 21 8 -3 12 -2 9 4 -8 13 -22 13 -31 -2z"/>
<path d="M4927 3434 c-4 -4 -7 -18 -7 -31 0 -26 26 -41 42 -25 8 8 5 9 -11 5
-12 -3 -21 -1 -21 6 0 6 9 11 21 11 14 0 19 5 17 17 -3 19 -29 29 -41 17z m33
-14 c0 -5 -7 -10 -15 -10 -8 0 -15 5 -15 10 0 6 7 10 15 10 8 0 15 -4 15 -10z"/>
<path d="M4992 3403 l1 -38 4 33 c3 24 8 32 19 28 8 -3 14 -1 14 4 0 6 -9 10
-20 10 -17 0 -20 -6 -18 -37z"/>
<path d="M5056 3431 c-3 -5 3 -7 14 -4 11 3 20 1 20 -5 0 -5 -9 -12 -21 -15
-22 -6 -22 -29 -1 -33 7 -1 8 0 2 3 -15 7 -12 23 4 23 8 0 17 -8 20 -17 2 -10
4 -2 3 17 -2 34 -27 54 -41 31z"/>
<path d="M1163 3153 c9 -2 23 -2 30 0 6 3 -1 5 -18 5 -16 0 -22 -2 -12 -5z"/>
<path d="M1342 3115 c0 -39 2 -43 7 -21 9 42 29 44 34 4 l5 -33 -2 35 c-1 24
-6 35 -16 35 -8 0 -18 7 -22 15 -4 8 -6 -7 -6 -35z"/>
<path d="M1227 3133 c-16 -15 -5 -33 19 -33 20 0 25 4 20 16 -3 9 -6 18 -6 20
0 7 -26 5 -33 -3z m28 -13 c3 -5 -1 -10 -9 -10 -9 0 -16 5 -16 10 0 6 4 10 9
10 6 0 13 -4 16 -10z"/>
<path d="M1300 3136 c0 -2 7 -7 16 -10 8 -3 12 -2 9 4 -6 10 -25 14 -25 6z"/>
<path d="M1416 3131 c-3 -5 3 -7 14 -4 11 3 20 1 20 -5 0 -5 -9 -12 -20 -15
-30 -8 -26 -37 5 -35 22 2 26 7 23 33 -3 30 -30 47 -42 26z m29 -41 c-3 -5
-10 -10 -16 -10 -5 0 -9 5 -9 10 0 6 7 10 16 10 8 0 12 -4 9 -10z"/>
<path d="M1158 3113 c6 -2 18 -2 25 0 6 3 1 5 -13 5 -14 0 -19 -2 -12 -5z"/>
<path d="M1281 3104 c0 -11 3 -14 6 -6 3 7 2 16 -1 19 -3 4 -6 -2 -5 -13z"/>
<path d="M1227 3078 c2 -5 10 -8 18 -8 8 0 16 3 18 8 3 4 -5 7 -18 7 -13 0
-21 -3 -18 -7z"/>
<path d="M1305 3080 c-16 -7 -17 -9 -3 -9 9 -1 20 4 23 9 7 11 7 11 -20 0z"/>
<path d="M5120 2850 c0 -5 5 -10 11 -10 5 0 7 5 4 10 -3 6 -8 10 -11 10 -2 0
-4 -4 -4 -10z"/>
<path d="M5313 2815 c0 -27 2 -38 4 -22 2 15 2 37 0 50 -2 12 -4 0 -4 -28z"/>
<path d="M5343 2815 c0 -27 2 -38 4 -22 2 15 2 37 0 50 -2 12 -4 0 -4 -28z"/>
<path d="M5433 2815 c0 -27 2 -38 4 -22 2 15 2 37 0 50 -2 12 -4 0 -4 -28z"/>
<path d="M5180 2793 c0 -27 4 -43 8 -37 4 6 14 14 22 17 12 4 11 6 -2 6 -12 1
-18 9 -18 25 0 15 7 26 18 29 13 4 11 5 -5 6 -21 1 -23 -4 -23 -46z"/>
<path d="M5263 2834 c24 -8 22 -28 -3 -21 -12 3 -20 0 -20 -8 0 -8 9 -11 25
-7 31 5 30 36 0 39 -16 1 -16 1 -2 -3z"/>
<path d="M5363 2805 c0 -22 2 -30 4 -17 2 12 2 30 0 40 -3 9 -5 -1 -4 -23z"/>
<path d="M5394 2826 c-8 -22 -1 -49 14 -52 7 -1 8 0 2 3 -14 7 -13 50 3 56 9
4 9 6 -1 6 -7 1 -15 -5 -18 -13z"/>
<path d="M5464 2826 c-9 -23 0 -51 17 -54 19 -4 32 23 24 49 -7 22 -33 25 -41
5z m31 -21 c0 -10 -6 -20 -12 -22 -8 -3 -13 5 -13 22 0 17 5 25 13 23 6 -3 12
-13 12 -23z"/>
<path d="M5141 2823 c-1 -7 -8 -13 -16 -13 -8 0 -19 -10 -25 -22 -10 -21 -10
-21 3 -5 8 9 20 17 27 17 7 0 19 -8 27 -17 13 -17 13 -17 5 2 -5 11 -12 27
-15 35 -3 9 -6 10 -6 3z"/>
<path d="M5221 2804 c0 -11 3 -14 6 -6 3 7 2 16 -1 19 -3 4 -6 -2 -5 -13z"/>
<path d="M5265 2780 c-16 -7 -17 -9 -3 -9 9 -1 20 4 23 9 7 11 7 11 -20 0z"/>
<path d="M1720 2346 c-15 -20 -9 -56 12 -70 14 -8 21 -6 35 9 16 17 17 18 1 6
-25 -18 -48 -7 -48 24 0 31 24 42 48 24 15 -13 16 -12 3 4 -16 21 -35 22 -51
3z"/>
<path d="M1796 2322 c-4 -11 -4 -27 0 -36 8 -20 36 -17 41 4 4 12 3 13 -5 1
-11 -16 -32 -7 -32 14 0 21 21 30 32 14 8 -12 9 -11 5 1 -6 23 -34 24 -41 2z"/>
<path d="M1863 2305 c0 -22 2 -30 4 -17 2 12 2 30 0 40 -3 9 -5 -1 -4 -23z"/>
<path d="M1889 2331 c8 -5 20 -7 27 -4 8 3 14 -6 17 -24 l4 -28 -1 30 c-1 26
-5 30 -31 32 -20 1 -25 -1 -16 -6z"/>
<path d="M1963 2308 c1 -26 7 -33 25 -34 19 -1 22 3 21 35 -1 35 -2 35 -8 7
-8 -40 -28 -44 -35 -7 l-6 31 3 -32z"/>
<path d="M2032 2303 l1 -38 4 33 c3 24 8 32 19 28 8 -3 14 -1 14 4 0 6 -9 10
-20 10 -17 0 -20 -6 -18 -37z"/>
<path d="M2093 2305 c0 -22 2 -30 4 -17 2 12 2 30 0 40 -3 9 -5 -1 -4 -23z"/>
<path d="M2127 2333 c-4 -3 -7 -17 -7 -30 0 -26 26 -41 42 -25 8 8 5 9 -11 5
-17 -4 -21 -1 -21 20 0 16 7 27 18 30 14 4 14 5 1 6 -9 0 -19 -2 -22 -6z"/>
<path d="M2186 2331 c-3 -5 3 -7 14 -4 11 3 20 1 20 -5 0 -5 -9 -12 -20 -15
-30 -8 -26 -37 5 -35 22 2 26 7 23 33 -3 30 -30 47 -42 26z m29 -41 c-3 -5
-10 -10 -16 -10 -5 0 -9 5 -9 10 0 6 7 10 16 10 8 0 12 -4 9 -10z"/>
<path d="M2252 2303 l1 -38 4 33 c3 24 8 32 19 28 8 -3 14 -1 14 4 0 6 -9 10
-20 10 -17 0 -20 -6 -18 -37z"/>
<path d="M281 2313 l2 -48 7 40 c4 22 8 34 9 26 0 -8 3 -12 6 -9 8 7 -5 38
-16 38 -5 0 -8 -21 -8 -47z"/>
<path d="M346 2351 c-4 -7 -5 -15 -2 -18 9 -9 19 4 14 18 -4 11 -6 11 -12 0z"/>
<path d="M403 2334 c24 -8 22 -28 -3 -21 -12 3 -20 0 -20 -8 0 -8 9 -11 25 -7
31 5 30 36 0 39 -16 1 -16 1 -2 -3z"/>
<path d="M452 2303 c1 -37 1 -37 5 -5 6 42 30 42 36 0 l5 -33 -2 35 c-1 28 -5
36 -23 38 -21 3 -23 -1 -21 -35z"/>
<path d="M520 2336 c0 -2 9 -6 20 -9 11 -3 18 -1 14 4 -5 9 -34 13 -34 5z"/>
<path d="M586 2331 c-4 -5 3 -7 14 -4 23 6 26 13 6 13 -8 0 -17 -4 -20 -9z"/>
<path d="M638 2295 c-2 -25 0 -45 4 -45 5 0 8 20 8 45 0 25 -2 45 -4 45 -2 0
-6 -20 -8 -45z"/>
<path d="M677 2334 c-4 -4 -7 -18 -7 -31 0 -26 26 -41 42 -25 8 8 5 9 -11 5
-12 -3 -21 -1 -21 6 0 6 9 11 21 11 14 0 19 5 17 17 -3 19 -29 29 -41 17z m33
-14 c0 -5 -7 -10 -15 -10 -8 0 -15 5 -15 10 0 6 7 10 15 10 8 0 15 -4 15 -10z"/>
<path d="M540 2303 c15 -7 12 -21 -5 -26 -11 -4 -10 -4 2 -3 21 2 25 28 5 32
-7 1 -8 0 -2 -3z"/>
<path d="M580 2290 c0 -15 6 -19 24 -18 14 1 22 6 20 10 -3 4 -11 5 -19 1 -8
-3 -15 0 -15 5 0 6 8 13 18 15 13 4 11 5 -5 6 -17 1 -23 -5 -23 -19z"/>
<path d="M310 2291 c0 -5 5 -13 10 -16 6 -3 10 -2 10 4 0 5 -4 13 -10 16 -5 3
-10 2 -10 -4z"/>
<path d="M405 2280 c-16 -7 -17 -9 -3 -9 9 -1 20 4 23 9 7 11 7 11 -20 0z"/>
<path d="M3610 2215 c0 -44 0 -45 33 -44 30 2 30 2 5 6 -16 2 -28 10 -28 18 0
8 12 16 28 18 l27 4 -27 2 c-17 0 -28 7 -28 15 0 8 12 17 28 19 25 4 25 4 -5
6 -33 1 -33 0 -33 -44z"/>
<path d="M3863 2215 c0 -27 2 -38 4 -22 2 15 2 37 0 50 -2 12 -4 0 -4 -28z"/>
<path d="M4060 2251 c0 -5 -9 -11 -21 -14 -30 -8 -23 -62 9 -63 20 -1 22 3 22
42 0 24 -2 44 -5 44 -3 0 -5 -4 -5 -9z m-5 -46 c0 -10 -6 -20 -12 -22 -8 -3
-13 5 -13 22 0 17 5 25 13 23 6 -3 12 -13 12 -23z"/>
<path d="M3693 2205 c0 -22 2 -30 4 -17 2 12 2 30 0 40 -3 9 -5 -1 -4 -23z"/>
<path d="M3719 2231 c8 -5 20 -7 27 -4 8 3 14 -6 17 -24 l4 -28 -1 30 c-1 26
-5 30 -31 32 -20 1 -25 -1 -16 -6z"/>
<path d="M3792 2195 c-1 -27 2 -45 6 -39 4 6 15 13 25 17 21 8 20 59 -1 63 -7
1 -8 0 -2 -3 16 -7 12 -53 -4 -53 -9 0 -16 13 -19 33 -3 23 -4 18 -5 -18z"/>
<path d="M3903 2234 c24 -8 22 -28 -3 -21 -12 3 -20 0 -20 -8 0 -8 9 -11 25
-7 31 5 30 36 0 39 -16 1 -16 1 -2 -3z"/>
<path d="M3956 2231 c-3 -5 3 -7 14 -4 11 3 20 1 20 -5 0 -5 -9 -12 -20 -15
-30 -8 -26 -37 5 -35 22 2 26 7 23 33 -3 30 -30 47 -42 26z m29 -41 c-3 -5
-10 -10 -16 -10 -5 0 -9 5 -9 10 0 6 7 10 16 10 8 0 12 -4 9 -10z"/>
<path d="M4086 2222 c-4 -11 -4 -27 0 -36 8 -20 36 -17 41 4 4 12 3 13 -5 1
-11 -16 -32 -7 -32 14 0 21 21 30 32 14 8 -12 9 -11 5 1 -6 23 -34 24 -41 2z"/>
<path d="M4154 2228 c-4 -6 0 -16 9 -23 22 -16 21 -22 0 -28 -16 -4 -16 -5 -1
-6 24 -2 34 20 15 34 -21 15 -22 29 -1 21 8 -3 12 -2 9 4 -8 13 -22 13 -31 -2z"/>
<path d="M3905 2180 c-16 -7 -17 -9 -3 -9 9 -1 20 4 23 9 7 11 7 11 -20 0z"/>
<path d="M4990 2215 c0 -41 2 -45 24 -45 14 0 27 4 30 9 3 4 -6 6 -19 3 -23
-4 -25 -1 -25 33 0 34 2 37 25 33 13 -3 22 -1 19 3 -3 5 -16 9 -30 9 -22 0
-24 -4 -24 -45z"/>
<path d="M5373 2215 c0 -27 2 -38 4 -22 2 15 2 37 0 50 -2 12 -4 0 -4 -28z"/>
<path d="M5147 2234 c-4 -4 -7 -18 -7 -31 0 -26 26 -41 42 -25 8 8 5 9 -11 5
-12 -3 -21 -1 -21 6 0 6 9 11 21 11 14 0 19 5 17 17 -3 19 -29 29 -41 17z m33
-14 c0 -5 -7 -10 -15 -10 -8 0 -15 5 -15 10 0 6 7 10 15 10 8 0 15 -4 15 -10z"/>
<path d="M5212 2203 c1 -35 2 -35 5 -7 3 26 8 31 33 31 25 0 30 -5 33 -31 4
-28 4 -28 3 4 -1 33 -3 35 -38 38 -38 2 -38 2 -36 -35z"/>
<path d="M5310 2193 c0 -27 4 -43 8 -37 4 6 14 14 22 17 12 4 11 6 -2 6 -12 1
-18 9 -18 25 0 15 7 26 18 29 13 4 11 5 -5 6 -21 1 -23 -4 -23 -46z"/>
<path d="M5407 2234 c-4 -4 -7 -18 -7 -31 0 -26 26 -41 42 -25 8 8 5 9 -11 5
-12 -3 -21 -1 -21 6 0 6 9 11 21 11 14 0 19 5 17 17 -3 19 -29 29 -41 17z m33
-14 c0 -5 -7 -10 -15 -10 -8 0 -15 5 -15 10 0 6 7 10 15 10 8 0 15 -4 15 -10z"/>
<path d="M5051 2214 c0 -11 3 -14 6 -6 3 7 2 16 -1 19 -3 4 -6 -2 -5 -13z"/>
<path d="M5351 2204 c0 -11 3 -14 6 -6 3 7 2 16 -1 19 -3 4 -6 -2 -5 -13z"/>
<path d="M5022 2153 c48 -2 129 -2 180 0 51 1 12 3 -87 3 -99 0 -141 -2 -93
-3z"/>
<path d="M5357 2153 c18 -2 50 -2 70 0 21 2 7 4 -32 4 -38 0 -55 -2 -38 -4z"/>
<path d="M5533 1545 c0 -27 2 -38 4 -22 2 15 2 37 0 50 -2 12 -4 0 -4 -28z"/>
<path d="M5273 1535 c0 -22 2 -30 4 -17 2 12 2 30 0 40 -3 9 -5 -1 -4 -23z"/>
<path d="M5300 1566 c0 -2 9 -6 20 -9 11 -3 18 -1 14 4 -5 9 -34 13 -34 5z"/>
<path d="M5426 1561 c-3 -5 3 -7 14 -4 11 3 20 1 20 -5 0 -5 -9 -12 -21 -15
-22 -6 -22 -29 -1 -33 7 -1 8 0 2 3 -15 7 -12 23 4 23 8 0 17 -8 20 -17 2 -10
4 -2 3 17 -2 34 -27 54 -41 31z"/>
<path d="M5494 1556 c-8 -22 -1 -49 14 -52 7 -1 8 0 2 3 -14 7 -13 50 3 56 9
4 9 6 -1 6 -7 1 -15 -5 -18 -13z"/>
<path d="M5562 1533 c1 -35 2 -35 5 -7 3 26 8 31 33 31 25 0 30 -5 33 -31 4
-28 4 -28 3 4 -1 33 -3 35 -38 38 -38 2 -38 2 -36 -35z"/>
<path d="M5663 1535 c0 -22 2 -30 4 -17 2 12 2 30 0 40 -3 9 -5 -1 -4 -23z"/>
<path d="M5681 1531 c1 -35 2 -35 8 -7 9 42 29 44 34 4 l5 -33 -2 35 c-1 29
-5 35 -23 36 -20 1 -23 -3 -22 -35z"/>
<path d="M5320 1533 c15 -7 12 -21 -5 -26 -11 -4 -10 -4 2 -3 21 2 25 28 5 32
-7 1 -8 0 -2 -3z"/>
<path d="M5363 1483 c9 -2 25 -2 35 0 9 3 1 5 -18 5 -19 0 -27 -2 -17 -5z"/>
<path d="M4102 1345 c1 -45 1 -47 7 -15 l6 35 22 -35 c13 -19 23 -29 23 -23 0
7 -7 21 -15 30 -8 10 -21 27 -29 38 -14 19 -15 16 -14 -30z"/>
<path d="M4353 1345 c0 -27 2 -38 4 -22 2 15 2 37 0 50 -2 12 -4 0 -4 -28z"/>
<path d="M4186 1352 c-4 -11 -4 -27 0 -36 8 -20 36 -17 41 4 4 12 3 13 -5 1
-11 -16 -32 -7 -32 14 0 21 21 30 32 14 8 -12 9 -11 5 1 -6 23 -34 24 -41 2z"/>
<path d="M4253 1335 c0 -22 2 -30 4 -17 2 12 2 30 0 40 -3 9 -5 -1 -4 -23z"/>
<path d="M4279 1361 c8 -5 20 -7 27 -4 8 3 14 -6 17 -24 l4 -28 -1 30 c-1 26
-5 30 -31 32 -20 1 -25 -1 -16 -6z"/>
<path d="M4380 1363 c5 -2 10 -15 10 -28 0 -13 -5 -26 -10 -28 -6 -3 -5 -4 2
-3 7 2 13 15 13 31 0 16 -6 29 -13 31 -7 1 -8 0 -2 -3z"/>
<path d="M4421 1333 c2 -35 2 -35 6 -8 3 16 10 33 16 37 8 5 6 8 -5 8 -14 0
-18 -8 -17 -37z"/>
<path d="M4467 1363 c-16 -15 -5 -33 19 -33 20 0 25 4 20 16 -3 9 -6 18 -6 20
0 7 -26 5 -33 -3z m28 -13 c3 -5 -1 -10 -9 -10 -9 0 -16 5 -16 10 0 6 4 10 9
10 6 0 13 -4 16 -10z"/>
<path d="M4467 1308 c2 -5 10 -8 18 -8 8 0 16 3 18 8 3 4 -5 7 -18 7 -13 0
-21 -3 -18 -7z"/>
<path d="M3830 2895 c0 -8 4 -15 10 -15 5 0 7 7 4 15 -4 8 -8 15 -10 15 -2 0
-4 -7 -4 -15z"/>
<path d="M3880 2879 c0 -28 -2 -30 -17 -18 -15 13 -15 12 -5 -8 22 -40 32 -36
32 11 0 25 -2 46 -5 46 -3 0 -5 -14 -5 -31z"/>
<path d="M8980 2795 c0 -8 4 -15 10 -15 5 0 7 7 4 15 -4 8 -8 15 -10 15 -2 0
-4 -7 -4 -15z"/>
<path d="M9030 2779 c0 -28 -2 -30 -17 -18 -15 13 -15 12 -5 -8 22 -40 32 -36
32 11 0 25 -2 46 -5 46 -3 0 -5 -14 -5 -31z"/>
<path d="M8799 2093 c-8 -10 -9 -14 -2 -10 8 5 13 -5 16 -30 3 -35 4 -34 5 10
2 52 1 55 -19 30z"/>
<path d="M8962 2065 c1 -45 1 -47 7 -15 l6 35 22 -35 c13 -19 23 -29 23 -23 0
7 -7 21 -15 30 -8 10 -21 27 -29 38 -14 19 -15 16 -14 -30z"/>
<path d="M8888 2053 c7 -3 16 -2 19 1 4 3 -2 6 -13 5 -11 0 -14 -3 -6 -6z"/>
<path d="M4030 1895 c0 -8 4 -15 10 -15 5 0 7 7 4 15 -4 8 -8 15 -10 15 -2 0
-4 -7 -4 -15z"/>
<path d="M4080 1879 c0 -28 -2 -30 -17 -18 -15 13 -15 12 -5 -8 22 -40 32 -36
32 11 0 25 -2 46 -5 46 -3 0 -5 -14 -5 -31z"/>
<path d="M8259 593 c-8 -10 -9 -14 -2 -10 8 5 13 -5 16 -30 3 -35 4 -34 5 10
2 52 1 55 -19 30z"/>
<path d="M8348 553 c7 -3 16 -2 19 1 4 3 -2 6 -13 5 -11 0 -14 -3 -6 -6z"/>
</g>
</svg>
